<?xml version="1.0" standalone="no"?><!DOCTYPE svg PUBLIC "-//W3C//DTD SVG 1.1//EN" "http://www.w3.org/Graphics/SVG/1.1/DTD/svg11.dtd"><svg class="icon" width="200px" height="190.51px" viewBox="0 0 1075 1024" version="1.1" xmlns="http://www.w3.org/2000/svg"><path d="M556.032 909.312a375.04 375.04 0 0 1-86.8864-17.408c-79.3088-26.0096-146.6368-78.336-195.84-151.9104-13.6192-20.4288-18.7904-32.4608-19.5584-45.568-0.512-9.216 0.4096-13.4144 4.352-19.2512a19.5584 19.5584 0 0 1 8.8064-7.2704c5.632-2.8672 6.4512-3.072 14.336-2.9696 18.2272 0.1024 32.6144 8.96 49.0496 30.1056 3.1232 3.9936 11.8784 16.2816 19.456 27.2896 15.5648 22.7328 27.392 38.7072 37.888 51.3536 9.3184 11.0592 26.112 27.904 35.4304 35.328 15.1552 12.1344 50.9952 31.2832 76.8 41.1136 84.1216 32.0512 170.3936 29.0304 256.3072-8.96a382.464 382.464 0 0 0 118.6304-82.3296c10.752-11.264 14.4896-14.1312 16.4864-12.4416 1.7408 1.3824 1.3824 6.4-0.7168 10.496-4.4544 8.704-18.7904 25.6-36.5568 42.9056a350.3104 350.3104 0 0 1-96.9728 68.3008c-57.7536 28.5184-115.3024 42.0864-176.64 41.6256-11.52-0.1024-22.528-0.256-24.4224-0.4608z m-57.0368-272.5376c-7.7824-1.3824-6.5024-9.216 2.816-17.3568 7.68-6.656 25.5488-15.1552 47.3088-22.3744 14.6944-4.864 16.4352-6.2464 16.384-13.056-0.1024-10.496-8.5504-20.7872-31.6416-38.4a63.3344 63.3344 0 0 1-15.5648-81.1008c9.4208-15.616 26.4704-28.3648 43.4176-32.512 29.184-7.1168 51.9168 1.1776 62.464 22.784 4.0448 8.192 6.656 17.2544 5.8368 20.4288s-3.3792 2.56-9.8816-2.4064c-9.3696-7.168-15.7184-9.8304-24.7296-10.1888-9.216-0.3584-15.0528 1.3312-20.0192 5.7856-5.7344 5.1712-7.168 8.9088-7.168 18.432-0.0512 7.5776 0.2048 8.8064 2.7648 14.2336 13.6704 28.8768 57.9584 34.4576 88.9344 11.1616 10.0864-7.5776 22.528-28.5696 26.2656-44.0832 1.536-6.5536 1.792-9.728 1.4336-19.1488a50.4832 50.4832 0 0 0-2.9696-18.8416c-5.632-16.128-12.4416-24.832-24.3712-31.0272-18.2272-9.4208-41.0624-11.9296-72.0896-7.9872-26.4192 3.3792-54.2208 2.1504-70.7584-3.072-7.2192-2.304-9.7792-4.1472-9.7792-7.0656 0-2.4064 0.8192-2.6624 10.9056-3.3792 15.4624-1.1264 32.4608-5.3248 59.8528-14.848 9.0112-3.072 20.1728-6.6048 24.832-7.7824 28.3648-7.168 58.3168-9.1136 80.384-5.2736 9.4208 1.6384 20.7872 7.2704 29.44 14.592 25.1904 21.2992 49.6128 64.5632 69.376 122.88 6.144 18.0736 11.7248 30.464 18.3296 40.5504 14.9504 22.7328 34.816 36.608 59.904 41.8816 2.8672 0.6144 10.0864 1.0752 16.0768 1.024a79.36 79.36 0 0 0 36.352-8.4992c22.016-10.4448 35.4304-26.8288 42.1376-51.6096 2.5088-9.0624 2.7648-30.8224 0.512-39.424-5.2224-19.5584-17.8176-32.4608-37.632-38.3488-8.704-2.56-28.0576-3.328-34.2016-1.28a31.7952 31.7952 0 0 0-19.456 18.6368c-1.5872 3.9936-1.9968 6.7584-2.048 14.4896 0 8.6016 0.2048 10.0864 2.304 14.5408 6.2976 13.4656 18.2784 19.8144 37.376 19.8656 9.4208 0 10.9056 0.768 9.9328 5.12-1.024 4.864-6.4 8.1408-15.872 9.5744a60.4672 60.4672 0 0 1-35.7376-4.7104 54.7328 54.7328 0 0 1-26.112-30.3104 52.736 52.736 0 0 1-0.768-27.5456c1.9456-7.68 8.2432-20.224 13.3632-26.5216 14.4384-17.92 38.4512-27.0848 64.4096-24.6784 36.352 3.328 64.512 23.1424 76.9024 54.1696 10.0864 25.1392 10.4448 65.1776 0.768 90.1632-13.0048 33.792-44.3392 59.136-87.04 70.4-34.0992 8.96-61.6448 8.8576-89.2416-0.3072a156.672 156.672 0 0 1-51.5072-30.464c-7.9872-7.4752-10.6496-8.3968-10.6496-3.584 0 2.4576 1.2288 4.5568 6.5536 11.1104 8.3456 10.3424 12.1344 17.7152 11.4176 22.272-0.7168 4.4544-3.7376 6.912-9.472 7.5776-6.7072 0.8192-92.2624 0.1536-94.0032-0.7168-3.7888-1.8432 0.4096-11.264 7.3216-16.2816a39.68 39.68 0 0 1 17.8688-7.2704c6.656-1.2288 8.96-2.7136 8.96-5.6832 0-0.768-1.9968-5.2736-4.4032-10.0864a94.4128 94.4128 0 0 1-8.2944-26.2144c-0.8704-4.6592-6.4-2.6112-11.5712 4.2496-8.96 12.032-15.1552 31.0272-19.2512 58.88-1.9968 13.6704-3.072 16.64-6.5024 18.2272-1.7408 0.768-20.2752 1.024-75.1616 0.9216a3784.2944 3784.2944 0 0 1-75.0592-0.512z m-297.7792-1.0752c-66.048-0.4096-71.168-0.5632-73.3184-1.9968-3.072-1.9968-3.072-4.9664-0.1024-10.9568 8.1408-16.2304 28.2624-27.5968 60.8256-34.1504 20.8384-4.2496 33.2288-9.1648 44.5952-17.7152 13.568-10.1888 15.1552-19.456 4.3008-25.0368a91.392 91.392 0 0 1-31.4368-28.4672c-10.7008-16.2304-17.8688-42.1376-17.8688-64.512 0-11.6224 6.144-34.048 13.056-47.9744 10.24-20.48 24.6784-34.9184 44.8512-44.8 13.6192-6.656 31.0784-10.752 45.3632-10.752 3.072 0 5.12-0.512 6.4512-1.6384 1.792-1.4336 1.8944-1.8432 0.9216-4.7104-1.4336-4.3008-7.4752-9.6256-13.5168-11.8784-5.632-2.1504-12.032-3.072-29.2864-4.4032a112.8448 112.8448 0 0 1-16.0768-2.2016 28.5696 28.5696 0 0 1-14.8992-10.1376c-2.048-3.072-2.4576-4.608-2.4576-9.4208 0-5.0688 0.4096-6.4512 3.584-12.2368 3.328-6.0928 4.7104-9.728 7.2192-18.944 0.8704-3.072 1.3824-3.6864 3.2768-3.6864 1.2288 0 3.6352 1.1264 5.376 2.5088 10.5984 8.3456 42.8544 19.2512 56.9856 19.2512 8.9088 0 13.1072-1.28 16.384-5.0688 2.3552-2.6624 2.6112-3.4304 2.1504-6.6048a37.5296 37.5296 0 0 0-9.728-18.176c-5.12-5.0688-15.4624-10.3424-25.1904-12.9024a69.5296 69.5296 0 0 0-18.2784-1.9456c-12.4416-0.1536-13.4656 0.1536-20.3776 5.888-5.7344 4.8128-7.6288 4.4032-14.0288-3.1744-15.9744-18.944-23.3984-38.656-18.7904-49.7152 1.536-3.584 3.4816-4.4032 16.9472-6.656 5.9392-1.024 18.0736-3.328 26.9824-5.2224 35.0208-7.3216 54.3232-9.728 78.4896-9.6256 20.3776 0 21.248-0.256 26.7264-8.3968 7.168-10.752 9.8304-21.248 9.8304-39.424 0-14.7456 0.6656-16.5376 5.888-16.5376 4.096 0 10.0352 2.8672 12.9536 6.3488 5.7856 6.8608 8.0384 15.9232 9.0112 36.7104 0.6144 12.8 1.28 18.432 2.9184 24.8832 3.3792 13.2096 5.3248 16.1792 19.712 30.3616 17.8688 17.664 23.2448 26.1632 26.5216 42.0864 2.6112 12.7488 1.1264 27.8528-3.8912 39.3728-6.2464 14.2336-20.992 30.6176-37.4784 41.6256-12.7488 8.448-27.4432 15.4624-83.5072 39.7824-10.752 4.608-22.1184 9.728-25.2416 11.3152-20.2752 10.24-39.2192 29.5936-46.5408 47.4624-2.048 5.12-2.56 7.68-2.8672 16.0768-0.6144 15.616 2.7136 26.112 12.288 38.8608 6.6048 8.704 19.2 18.432 28.672 21.9648 11.776 4.352 28.16 4.608 41.8816 0.5632 13.4144-3.8912 28.928-13.1072 27.136-16.0256-0.9728-1.536-2.9184-1.1264-8.9088 1.7408-22.7328 10.8544-47.7696 12.4928-62.0032 4.096a74.0864 74.0864 0 0 1-19.968-20.0192c-8.2432-13.9776-10.8544-33.792-6.2464-47.2576a41.216 41.216 0 0 1 11.3152-16.9984c8.704-8.448 36.0448-22.3744 89.2416-45.568 31.488-13.824 37.6832-16.896 48.64-24.1664a134.8096 134.8096 0 0 0 60.5696-113.664 32.256 32.256 0 0 1 0.8192-9.8304c1.024 0 6.8608 7.8336 11.3152 15.104 22.7328 37.1712 30.5664 86.9376 19.5584 124.8256-10.24 35.4816-34.3552 63.1808-64.1536 73.728-10.8032 3.8912-18.9952 5.1712-31.8976 5.12a93.0816 93.0816 0 0 1-30.9248-4.7104c-16.896-4.9152-29.4912-5.376-43.2128-1.5872-12.4928 3.4304-18.7904 8.4992-21.2992 17.0496a24.832 24.832 0 0 0 2.9184 18.7392c3.1232 5.7856 5.9904 7.8336 11.7248 8.2944 8.448 0.6656 19.8144-5.2736 19.8144-10.3936 0-1.1264-2.56-6.4512-5.632-11.8272a52.736 52.736 0 0 1-5.632-11.9296c0-3.2256 3.0208-4.8128 9.0624-4.8128 7.936 0 13.0048 2.7648 19.1488 10.2912 5.7344 7.168 10.9056 10.8544 17.0496 12.3392 7.4752 1.792 8.5504 5.7344 4.7104 17.2544-6.3488 18.944-22.528 41.1136-51.8144 71.1168a314.4704 314.4704 0 0 0-21.6064 23.9104 157.44 157.44 0 0 0-20.48 44.3904c-3.1744 11.1104-5.9904 13.9264-14.848 14.9504-1.4336 0.1536-34.56 0.1024-73.6256-0.1536z m128.256-17.8176c-5.0176-2.2016-4.608-9.5744 0.8192-15.7696 4.7616-5.4784 6.4-5.888 23.6032-6.4512 14.0288-0.4096 15.616-0.6144 16.7424-2.1504a6.8608 6.8608 0 0 0 1.2288-3.4816c0-2.9184-3.7376-11.008-7.68-16.896-6.4-9.3184-7.4752-12.4928-7.5264-22.016 0-9.3184 0.8704-11.52 6.4-15.2576 9.1648-6.2464 33.9456-3.584 58.9312 6.2976 24.32 9.6256 48.1792 13.4144 83.7632 13.4144 18.432 0 21.1968 0.2048 21.6576 1.3824 0.6656 1.7408-2.048 5.4272-5.8368 7.9872-9.5744 6.5536-36.9664 9.728-69.376 7.9872-19.8144-1.024-21.76-0.6656-23.1424 4.096-1.536 5.2736 1.2288 11.52 8.4992 19.456 9.7792 10.6496 10.5472 16.1792 2.7648 20.3264-3.584 1.8944-3.8912 1.8944-55.808 2.0992-43.52 0.1536-52.736 0-55.04-1.024z m566.8864-262.656a35.4816 35.4816 0 0 1-18.432-9.7792 880.3328 880.3328 0 0 1-24.3712-28.3648c-47.4624-56.6784-62.8224-72.8064-87.1936-91.2384a313.0368 313.0368 0 0 0-67.328-37.888c-65.9968-25.8048-143.0016-29.184-221.3888-9.6256-17.92 4.5056-17.408 2.4576 1.1264-4.7616a387.3792 387.3792 0 0 1 186.368-23.1424c95.488 12.1856 177.3056 60.5696 228.2496 134.912 18.0736 26.4192 25.344 41.472 25.3952 52.6336 0 12.544-8.7552 19.3024-22.4256 17.3056z" fill="#F09D13" /></svg>