<?xml version="1.0" standalone="no"?><!DOCTYPE svg PUBLIC "-//W3C//DTD SVG 1.1//EN" "http://www.w3.org/Graphics/SVG/1.1/DTD/svg11.dtd"><svg t="1741404075383" class="icon" viewBox="0 0 1075 1024" version="1.1" xmlns="http://www.w3.org/2000/svg" p-id="5648" xmlns:xlink="http://www.w3.org/1999/xlink" width="209.9609375" height="200"><path d="M328.704 465.3056v95.3856c15.0528 25.9072 36.352 47.616 62.0544 63.0784V465.3056H328.704z" fill="#AECBFA" p-id="5649"></path><path d="M443.2896 377.5488v273.0496c13.312 1.6896 26.7776 2.4576 40.2432 2.2016 12.0832 0.7168 24.1664 0.7168 36.2496 0V377.5488H443.2896z" fill="#669DF6" p-id="5650"></path><path d="M579.2768 502.6304v119.296a181.4016 181.4016 0 0 0 61.6448-65.9968v-53.248h-61.6448z" fill="#AECBFA" p-id="5651"></path><path d="M727.9616 664.3712l-51.5072 51.5072a15.3088 15.3088 0 0 0 0 21.76l128.4096 128.3584a15.2064 15.2064 0 0 0 21.4016 0l51.8144-51.8656a15.2576 15.2576 0 0 0 0-21.4016l-128.3584-128.3584a15.2576 15.2576 0 0 0-21.76 0z" fill="#4285F4" p-id="5652"></path><path d="M483.5328 145.0496a326.4 326.4 0 1 0 0 652.8 326.4 326.4 0 0 0 0-652.8z m0 568.9856a242.2784 242.2784 0 1 1 0.768-484.5056 242.2784 242.2784 0 0 1-0.768 484.5056z" fill="#669DF6" p-id="5653"></path></svg>