<?xml version="1.0" standalone="no"?><!DOCTYPE svg PUBLIC "-//W3C//DTD SVG 1.1//EN" "http://www.w3.org/Graphics/SVG/1.1/DTD/svg11.dtd"><svg t="1741404521543" class="icon" viewBox="0 0 1075 1024" version="1.1" xmlns="http://www.w3.org/2000/svg" p-id="6514" xmlns:xlink="http://www.w3.org/1999/xlink" width="209.9609375" height="200"><path d="M522.6496 317.6448c-87.4496 1.9456-176.384 28.8768-277.0432 84.5824-18.2784 21.1456-27.6992 44.032-25.7024 67.2768 6.7584 78.9504 142.0288 131.84 302.08 118.1184 160.1024-13.7216 284.3648-88.8832 277.5552-167.8336a79.4624 79.4624 0 0 0-16.6912-41.472c-91.5968-41.0112-175.2064-62.6176-260.1984-60.672z" fill="#BAE6FA" p-id="6515"></path><path d="M533.9648 317.4912c-71.168-0.1024-142.9504 16.0768-220.9792 50.8416-3.2768 12.544-5.0176 25.6-5.0176 39.0144 0 93.696 84.5824 169.6256 188.928 169.6256 104.2944 0 188.928-75.9808 188.928-169.6256 0-25.2416-6.2464-49.152-17.2544-70.7072a512.512 512.512 0 0 0-134.656-19.1488z" fill="#FFFFFF" opacity=".35" p-id="6516"></path><path d="M496.896 310.8864c-33.792-2.048-92.1088 15.5648-140.6464 33.1776a144.2304 144.2304 0 0 0-11.52 56.4736c0 82.0736 74.4448 148.6336 153.1392 148.6336 78.1824 0 147.4048-66.6624 153.1392-148.6336 1.8944-26.6752-7.3216-51.8144-20.0704-73.5232a1316.9664 1316.9664 0 0 0-134.0416-16.128" fill="#FFFFFF" p-id="6517"></path><path d="M410.112 389.7856c4.1472-9.216 10.4448-13.7216 16.5376-21.4016a48.128 48.128 0 0 1-2.2016-9.8816 16.6912 16.6912 0 0 1 22.8864-15.5136 121.8048 121.8048 0 0 1 110.592-19.456c-36.1984-4.9664-77.0048 7.8336-104.704 30.208 0.8192 2.048 3.1744 7.68 3.1744 10.0352 0 9.216-5.9904 11.4688-15.2064 11.4688a16.896 16.896 0 0 1-5.9392-1.1264 169.216 169.216 0 0 0-17.7152 34.4576c15.36 13.7216 29.184 18.688 47.2576 25.4464 0-0.8192 0.6144-1.6384 0.6144-2.56 0-27.8016 24.5248-50.3808 52.3264-50.3808a50.3296 50.3296 0 0 1 49.664 41.9328c12.4416-7.936 24.4736-14.0288 33.6384-25.7536a29.696 29.696 0 0 1-4.4544-13.6192 15.1552 15.1552 0 0 1 18.6368-14.7456c4.608-9.6256 8.192-19.712 10.3936-30.208-43.52-32.2048-127.744-27.8016-127.744-27.8016s-67.0208-3.4816-112.384 18.6368c3.072 21.8624 11.776 42.6496 24.6272 60.2624z" fill="#6A6A6A" p-id="6518"></path><path d="M618.1376 377.1904c3.072 2.7648 4.7616 5.2224 6.0928 7.5776 4.096 7.3216-4.096 14.0288-12.4416 14.0288a15.2064 15.2064 0 0 1-2.56-0.256c-9.4208 14.7456-25.9072 33.6384-40.6016 43.1616 22.528 3.7376 43.7248 12.6976 60.6208 26.624 12.288-22.016 21.76-53.8624 21.76-80.896 0-20.5824-9.1136-35.6352-22.784-46.6944-0.7168 11.008-6.656 26.4192-10.0864 36.4544z m-182.784 139.6224c7.5264-20.6848 26.0096-36.7616 43.4688-50.8928a96.1536 96.1536 0 0 1-7.9872-16.2304 122.1632 122.1632 0 0 1-54.784-34.6624 110.4384 110.4384 0 0 0-2.2016 38.144 21.9648 21.9648 0 0 1 17.92 21.5552c0 6.4-5.632 15.616-9.9328 19.6608 4.7104 10.1376 7.8848 15.0528 13.568 22.4256" fill="#6A6A6A" p-id="6519"></path><path d="M434.0736 534.2208c-8.96-8.9088-15.1552-26.624-20.992-37.7856a20.992 20.992 0 0 1-3.328 0.3072c-12.1344 0-24.832-10.24-21.9648-22.016 1.5872-6.5024 6.144-10.752 13.4144-14.336-1.6384-13.5168-2.0992-32.9216 1.024-47.0016 0.9216-3.9936 2.816-5.888 4.096-9.728a128.8704 128.8704 0 0 1-22.0672-70.8096l0.0512-2.7648c-22.6304 11.3664-39.5776 29.184-39.5776 57.344 0 62.2592 35.84 123.392 89.1904 147.3024l0.1536-0.512m131.1744-86.0672a50.3808 50.3808 0 0 1-78.592 22.8864c-17.664 13.7728-33.6896 37.888-41.8304 58.88 3.6352 3.9424 6.144 7.168 10.2912 10.7008 12.3392 3.2256 29.3888 0 42.752 0 53.76 0 101.4272-23.9616 128.768-65.9456-18.176-12.544-39.6288-24.5248-61.3888-26.5216z" fill="#6A6A6A" p-id="6520"></path><path d="M408.7296 397.056c4.096-9.0624 9.2672-17.6128 15.4624-25.3952a16.7424 16.7424 0 0 1 21.8112-21.4016 121.856 121.856 0 0 1 110.5408-19.456 134.144 134.144 0 0 0-101.3248 28.5184 16.7424 16.7424 0 0 1-21.3504 22.0672 112.7424 112.7424 0 0 0-15.1552 27.7504c13.2096 14.1824 29.3376 25.4464 47.4112 32.1536-0.0512-0.8192-0.1536-1.6896-0.1536-2.56a50.3808 50.3808 0 0 1 100.0448-8.448c12.4928-8.0384 23.552-18.1248 32.6656-29.8496a15.1552 15.1552 0 0 1 15.1552-24.2688c4.6592-9.5744 8.192-19.712 10.3936-30.208-43.52-32.2048-127.744-27.8016-127.744-27.8016s-67.0208-3.4816-112.384 18.6368c3.072 21.8624 11.776 42.6496 24.6272 60.2624z" fill="#1185B0" p-id="6521"></path><path d="M620.4928 379.6992a15.0016 15.0016 0 0 1 0.6144 21.9136 15.2064 15.2064 0 0 1-13.2096 4.1984 122.6752 122.6752 0 0 1-36.6592 36.864c21.7088 3.3792 42.0864 12.544 59.0336 26.5216 12.6976-22.784 19.3536-48.384 19.3536-74.4448 0-20.6336-9.1136-35.6864-22.8352-46.7456a121.7536 121.7536 0 0 1-6.2976 31.6928z m-182.784 142.1312c7.5264-20.992 20.6848-39.424 37.9904-53.4528a50.176 50.176 0 0 1-6.2976-11.4176A122.1632 122.1632 0 0 1 414.72 422.2976l-0.3072 1.3824a110.08 110.08 0 0 0-1.8944 36.7616 21.9648 21.9648 0 0 1 10.8032 37.6832c3.9936 8.3968 8.8064 16.3328 14.4384 23.7056z" fill="#1185B0" p-id="6522"></path><path d="M433.9712 534.016a122.112 122.112 0 0 1-22.2208-30.3104 21.6064 21.6064 0 0 1-18.944-6.144 22.016 22.016 0 0 1 6.0416-35.328 121.5488 121.5488 0 0 1 5.2736-53.2992 121.5488 121.5488 0 0 1-21.248-68.8128l0.0512-2.7648c-22.6304 11.3152-39.5776 29.184-39.5776 57.344 0 62.3104 37.1712 115.8144 90.5216 139.776l0.1024-0.512z m129.8944-78.592a50.3808 50.3808 0 0 1-78.592 22.8864 124.8256 124.8256 0 0 0-39.168 53.504c3.6864 3.9424 7.5776 7.68 11.6736 11.1104a152.9856 152.9856 0 0 0 167.1168-64.8192 128.512 128.512 0 0 0-61.0304-22.6816z" fill="#1185B0" p-id="6523"></path><path d="M502.1696 395.776l-26.4192-47.104 14.336 50.0224-42.8032-31.0784 33.4848 42.0864-53.0944-19.5072 41.8816 30.976-53.76 1.6896 54.9888 14.1824-54.9888 11.8784 54.272 3.9424-45.7728 29.3376 47.104-17.1008-32.6656 41.472 41.3184-33.3824-14.848 55.6032 31.8976-45.2608-4.5056 53.4528 18.1248-48.4352 15.4624 50.8928 3.7376-51.0464 22.8864 43.52-13.5168-49.7664 41.8816 32.4096-27.0336-41.3696 45.9776 17.92-35.1744-34.56 47.104 3.6864-46.3872-17.8176 46.592-11.0592-46.7456-2.4064 37.9904-29.0816-43.1616 15.4624 29.3376-40.6528-40.448 26.9312 14.1312-47.5648-27.8528 39.2192-0.6144-49.5616-18.3296 44.1344-15.2064-44.6464 0.8192 52.6336z" fill="#FFFFFF" p-id="6524"></path><path d="M69.9904 531.5584c144.384-144.384 259.7376-188.9792 364.3904-209.3568 13.824-2.7136 16.4352-32.9728 16.4352-32.9728s1.9456 22.3232 11.6224 25.2416c9.728 2.8672 22.3232-34.9184 22.3232-34.9184s-11.6224 33.9456 0 35.84c11.6224 1.9456 32.9216-32.9216 32.9216-32.9216s-8.704 30.0544-2.8672 31.9488c5.7856 1.9456 34.816-43.5712 34.816-43.5712s-17.408 30.0544-0.9216 32.9216c16.4864 2.9184 40.4992-20.48 40.4992-20.48s-18.8928 21.4016-10.4448 24.3712c35.84 12.5952 64.8704-33.9968 64.8704-33.9968s-6.7584 20.48-24.1664 42.7008c37.7856 9.728 65.8432-47.2064 65.8432-47.2064l-28.0576 56.9344c14.5408 7.7312 72.704-59.136 72.704-59.136s-30.0544 52.3264-47.5136 62.976c9.728 7.7824 44.544-23.2448 44.544-23.2448s-28.0576 34.8672-17.408 36.864c15.5136 12.544 72.704-64.9728 72.704-64.9728s-22.3232 45.568-55.296 81.408c27.5456 13.824 95.9488-74.5984 95.9488-74.5984s-1.9456 28.1088-51.3536 72.704c36.864-4.864 84.3264-74.6496 84.3264-74.6496s-17.408 52.3264-59.136 89.1392c36.1984-3.7376 94.0032-93.0304 94.0032-93.0304s-22.272 62.0032-67.84 97.8944c50.432 11.1616 123.0848-64 123.0848-64S917.504 366.848 880.128 388.608c41.6768 15.9744 98.816-49.92 98.816-49.92s-57.1392 88.1664-148.224 84.3264c-29.9008-1.28-120.32-90.7264-314.0096-83.3536-255.7952 9.728-310.0672 118.2208-446.72 191.8976z" fill="#6A6A6A" opacity=".35" p-id="6525"></path><path d="M735.8464 256s-58.1632 66.8672-72.704 59.136l28.1088-56.9856s-28.1088 56.9344-65.8944 47.2576c17.408-22.272 24.1664-42.7008 24.1664-42.7008s-28.9792 46.592-64.8704 33.9968c-8.3968-2.9696 10.496-24.3712 10.496-24.3712s-24.064 23.3984-40.4992 20.48c-16.4864-2.9184 0.9216-32.9216 0.9216-32.9216s-29.0304 45.568-34.8672 43.5712c-5.8368-1.8944 2.9184-31.9488 2.9184-31.9488s-21.2992 34.8672-32.9728 32.9216c-11.6224-1.9456 0-35.84 0-35.84s-12.5952 37.7856-22.272 34.8672c-9.728-2.8672-11.6224-25.1904-11.6224-25.1904s-2.6112 30.2592-16.4864 32.9728c-104.6528 20.3264-219.9552 64.9216-364.3904 209.3056C212.5824 446.976 266.8032 338.432 522.6496 328.704c193.6896-7.3728 284.1088 82.0224 313.9584 83.3024 91.136 3.8912 148.2752-84.3264 148.2752-84.3264s-57.1392 65.8944-98.816 49.92c37.2736-21.8112 65.8944-75.1104 65.8944-75.1104s-72.704 75.1104-123.0848 64c45.568-35.84 67.84-97.8944 67.84-97.8944s-57.856 89.2928-94.0032 93.0304c41.6768-36.8128 59.0848-89.1392 59.0848-89.1392s-47.4624 69.7856-84.2752 74.5984c49.408-44.544 51.3536-72.704 51.3536-72.704s-68.4032 88.4224-95.9488 74.6496c32.9216-35.84 55.2448-81.408 55.2448-81.408s-57.1904 77.5168-72.704 64.9216c-10.6496-1.9456 17.4592-36.8128 17.4592-36.8128s-34.8672 31.0272-44.544 23.2448c17.408-10.6496 47.4624-62.976 47.4624-62.976z m92.9792 162.9696c-9.728-0.6144-18.3296 3.0208-22.7328 14.9504-45.056 85.76-139.52 133.7344-250.0096 149.76-110.4896 15.9744-191.8976-7.2704-258.7648-26.112-87.9104-24.7808-157.696 19.3024-233.984-18.944 17.6128 13.9264 37.7856 27.5968 95.8976 27.7504 19.712 0.1024 82.8416-3.072 94.464 7.1168 11.6736 10.1376-39.2192 58.112-39.2192 58.112s86.0672-72.7552 94.464-47.9744c5.2224 15.4624-24.6784 56.7296-24.6784 56.7296s30.0032-40.7552 52.3264-49.4592c15.3088-5.9392 28.2112-5.2224 39.2192 10.24 7.2704 10.1376-34.816 59.5456-34.816 59.5456s56.6272-55.2448 66.816-52.3264c10.1888 2.9184 0 52.3264 0 52.3264s20.8384-50.0736 31.9488-53.76c15.2576-5.12-34.8672 116.224-34.8672 116.224s61.2352-112.2304 72.704-114.7904c19.6096-4.352 32.7168 78.4896 32.7168 78.4896s-9.5744-72.3456 0.7168-77.0048c65.024-29.4912 27.648 124.9792 27.648 124.9792s42.496-104.8064 16.384-128.0512c69.0176 45.7728 60.6208 128.0512 60.6208 128.0512s18.1248-39.168-32.768-135.5264c27.648-1.4336 69.12 71.5776 69.12 71.5776s-45.056-79.9232-14.5408-81.408c60.6208-2.8672 66.8672 106.1376 66.8672 106.1376s18.1248-15.2576-30.5152-122.112c30.976-19.8656 106.0864 98.816 106.0864 98.816s-69.2736-115.7632-58.1632-123.5456c11.1616-7.7312 51.8656 36.864 51.8656 36.864s-30.976-42.6496-22.784-47.0016c8.2432-4.4032 90.624 84.7872 90.624 84.7872s-72.704-87.2448-60.1088-97.8944c7.4752-6.2976 29.0816 5.376 45.568 15.9744-23.0912-16.5376-56.32-42.4448-45.568-48.0256 22.3232-11.5712 85.8112 27.648 85.8112 27.648s-38.2976-31.4368-32-39.2192c6.2976-7.7312 81.408 49.408 81.408 49.408S850.176 478.976 846.7968 465.92c-3.3792-13.1072 52.3264 4.352 52.3264 4.352s-61.5424-28.5696-62.464-36.864c-1.024-8.192 40.6528 9.216 40.6528 9.216s-27.0336-22.1696-48.4864-23.6544z m-1.8944 122.5216c6.656 4.7616 13.5168 9.472 20.3264 14.08 0 0-8.96-6.8096-20.3264-14.1312z" fill="#6A6A6A" p-id="6526"></path><path d="M66.2016 547.328c76.288 38.2976 146.0736-5.8368 234.0352 18.944 66.8672 18.8416 148.2752 42.0864 258.7136 26.112 110.4896-15.9744 205.0048-64 250.0608-149.7088 14.0288-38.2976 71.2192 8.704 71.2192 8.704s-41.6768-17.408-40.704-9.216c1.024 8.2432 62.464 36.864 62.464 36.864s-55.7056-17.4592-52.2752-4.4032c3.3792 13.1072 69.7344 65.4336 69.7344 65.4336s-75.0592-57.1904-81.408-49.4592c-6.2464 7.7824 32 39.2704 32 39.2704s-63.488-39.2704-85.76-27.648c-16.0256 8.2944 65.8944 62.0544 65.8944 62.0544s-53.248-40.704-65.8944-30.0544c-12.5952 10.7008 60.1088 97.8944 60.1088 97.8944s-82.432-89.1392-90.624-84.7872c-8.2432 4.352 22.784 47.0016 22.784 47.0016s-40.704-44.544-51.8656-36.864c-11.1104 7.7824 58.1632 123.5968 58.1632 123.5968s-75.1104-118.7328-106.1376-98.816c48.6912 106.8032 30.5152 122.0608 30.5152 122.0608s-6.144-109.0048-66.8672-106.1376c-30.5152 1.4848 14.5408 81.408 14.5408 81.408s-41.472-73.0112-69.12-71.5264c50.944 96.3072 32.768 135.4752 32.768 135.4752s8.448-82.2272-60.6208-128c26.1632 23.2448-16.384 128-16.384 128s37.4272-154.4192-27.648-124.928c-10.24 4.608-0.7168 77.0048-0.7168 77.0048s-13.1072-82.8928-32.7168-78.4896c-11.4176 2.56-72.704 114.7904-72.704 114.7904s50.176-121.344 34.9184-116.224c-11.1104 3.6864-31.9488 53.76-31.9488 53.76s10.1376-49.408 0-52.3264c-10.24-2.9184-66.9184 52.3264-66.9184 52.3264s42.1888-49.408 34.9184-59.5968c-11.008-15.4112-23.9616-16.1792-39.2704-10.24-22.272 8.704-52.3264 49.4592-52.3264 49.4592s29.952-41.2672 24.7296-56.6784c-8.3968-24.832-94.464 47.9744-94.464 47.9744s50.8416-47.9744 39.2192-58.1632c-11.6224-10.1888-74.752-7.0144-94.464-7.0656-58.1632-0.2048-78.336-13.824-95.9488-27.8016" fill="#6A6A6A" opacity=".35" p-id="6527"></path></svg>