<?xml version="1.0" standalone="no"?><!DOCTYPE svg PUBLIC "-//W3C//DTD SVG 1.1//EN" "http://www.w3.org/Graphics/SVG/1.1/DTD/svg11.dtd"><svg class="icon" width="200px" height="190.51px" viewBox="0 0 1075 1024" version="1.1" xmlns="http://www.w3.org/2000/svg"><path d="M675.1232 629.6576a368.4352 368.4352 0 0 0-126.8224-376.2176 328.96 328.96 0 0 1 164.6592-43.776c21.9136 0 43.7248 2.0992 65.2288 6.4l9.0624-36.352a370.688 370.688 0 0 0-74.3424-7.4752 366.08 366.08 0 0 0-197.632 57.4464 366.1824 366.1824 0 0 0-197.632-57.4464c-24.9344 0-49.8176 2.5088-74.2912 7.5264l9.0112 36.3008c21.504-4.3008 43.3664-6.4 65.3312-6.4a329.5744 329.5744 0 0 1 164.7104 43.7248 368.384 368.384 0 0 0 22.4256 591.104l10.5984 7.2704 10.5472-7.2704a368.896 368.896 0 0 0 149.248-214.8352h-0.1024zM496.5888 791.04a330.9056 330.9056 0 0 1-99.5328-349.2864 370.432 370.432 0 0 0 69.632 84.2752 90.624 90.624 0 0 1 29.9008 67.4816v197.5296z m18.7392-273.408a331.8784 331.8784 0 0 1-66.3552-65.536 91.4432 91.4432 0 0 1 0-110.7968c18.944-25.088 41.2672-47.3088 66.4576-66.048 25.4976 18.944 48.0256 41.5232 67.072 66.9696a90.5216 90.5216 0 0 1 0 108.544 334.5408 334.5408 0 0 1-67.1744 66.8672z m18.6368 273.408v-197.5296a90.624 90.624 0 0 1 30.0032-67.4816 368.9984 368.9984 0 0 0 69.5296-84.2752 331.1616 331.1616 0 0 1-99.5328 349.2864z" fill="#6646FE" /></svg>