<?xml version="1.0" standalone="no"?><!DOCTYPE svg PUBLIC "-//W3C//DTD SVG 1.1//EN" "http://www.w3.org/Graphics/SVG/1.1/DTD/svg11.dtd"><svg class="icon" width="200px" height="200.00px" viewBox="0 0 1024 1024" version="1.1" xmlns="http://www.w3.org/2000/svg"><path d="M559.3088 379.0848H51.2v237.568h508.1088v-237.568z" fill="#000000" /><path d="M972.8 379.0848h-403.2512v237.568H972.8v-237.568z" fill="#009933" /><path d="M130.3552 427.8272v9.472h67.9424v-9.472H130.3552z m77.824 0v9.472h97.024s-9.8816-9.472-22.9376-9.472H208.1792z m115.8144 0v9.472h58.6752l-3.3792-9.472h-55.296z m100.864 0l-3.4304 9.472h58.112v-9.472H424.8576z m-294.5024 18.5856v9.472h67.9424V446.464H130.3552z m77.824 0.2048v9.472H316.416s-1.3312-7.3728-3.4304-9.472H208.1792z m115.8144 0v9.472H389.12l-3.2256-9.472H323.9936z m93.7984 0l-3.2256 9.472h64.768v-9.472H417.792z m-267.8784 18.432v9.472h29.44v-9.5232h-29.44z m77.824 0v9.472h29.44v-9.5232h-29.44z m58.112 0v9.472h29.44s1.8944-5.12 1.8944-9.5232h-31.3344z m57.7024 0v9.472h52.224l-3.4304-9.5232H343.552z m67.7888 0l-3.4304 9.472h52.6336v-9.5232h-49.152z m-261.4272 18.7904v9.472h29.44V483.84h-29.44z m77.824 0v9.472h75.2128s6.2464-4.9152 8.3456-9.472H227.7376z m115.8144 0v9.472h29.44v-5.3248l1.8944 5.3248H429.056l2.048-5.3248v5.3248h29.4912V483.84h-55.296l-2.816 8.1408-3.072-8.192H343.552z m-193.6384 18.5856v9.472h29.44v-9.472h-29.44z m77.824 0v9.472H311.296c-2.048-4.5568-8.3456-9.472-8.3456-9.472H227.7376z m115.8144 0v9.472h29.44v-9.472H343.552z m34.9696 0l3.584 9.472h40.448l3.4304-9.472h-47.4624z m52.3776 0v9.472h29.44v-9.472h-29.44z m-280.9856 18.432v9.472h29.44v-9.472h-29.44z m77.824 0v9.472h29.44v-9.472h-29.44z m58.112 0v9.472h31.3344c0-4.5568-1.8944-9.472-1.8944-9.472h-29.44z m57.7024 0v9.472h29.44v-9.472H343.552z m41.5744 0l3.4304 9.472h27.136l3.4304-9.472h-33.9968z m45.7728 0v9.472h29.44v-9.472h-29.44z m-299.9808 18.5856v9.5232h67.9936v-9.5232H130.9184z m77.312 0v9.5232h104.7552c2.304-2.304 3.4304-9.5232 3.4304-9.5232H208.1792z m116.3776 0v9.5232h48.384v-9.5232H324.608z m67.1744 0l3.584 9.5232h13.8752l3.4304-9.5232h-20.8896z m39.1168 0v9.5232h48.9984v-9.5232h-48.9984z m-299.9808 18.7904v9.5232h67.9936v-9.5232H130.9184z m77.312 0v9.5232h73.8304a36.864 36.864 0 0 0 22.9888-9.5232H208.1792z m116.3776 0v9.5232h48.384v-9.5232H324.608z m74.0352 0l3.4304 9.5232h0.512l3.4304-9.5232h-7.3728z m32.256 0v9.5232h48.9984v-9.5232h-48.9984zM655.1552 540.7744V449.792h15.7696c14.4384 0 17.4592 11.9808 17.4592 42.3424 0 37.2224-1.3312 48.4352-22.784 48.4352h-10.4448v0.2048z m20.3264 18.7904a35.84 35.84 0 0 0 17.8176-3.4304c19.7632-11.4176 19.7632-40.8064 19.7632-66.048 0-21.2992-1.536-35.5328-7.0144-44.4416a29.9008 29.9008 0 0 0-24.8832-14.6432h-50.1248v128.512h44.4416zM758.6304 540.8256v-38.912h9.2672c15.0528 0 17.7152 5.888 17.7152 19.7632 0 6.4512-1.024 15.0016-7.424 17.8176-4.352 1.8944-9.472 1.3312-14.4384 1.3312h-5.12z m0-57.7024v-33.2288h11.2128c11.008 0.3584 13.1072 5.12 13.1072 14.848 0 6.0416-0.4096 10.5984-2.6624 13.824-3.84 4.7616-11.4176 4.352-17.1008 4.352h-4.608v0.2048z m18.432 76.4928c17.0496 0 26.368-6.8096 31.488-23.1424 1.3312-5.12 1.7408-10.4448 1.7408-15.7696 0-16.6912-5.12-27.904-18.6368-29.7984v-0.3584c13.1072-4.7616 15.36-15.7696 15.36-26.9824 0-8.704-0.9216-16.128-6.2464-23.1424-6.8096-8.7552-16.896-9.5232-27.3408-9.5232h-38.7072v128.512h42.3424v0.2048zM896.256 559.616v-18.7904h-44.8c0.1536-8.704 7.5776-17.1008 12.4928-22.2208l18.7904-19.5584c9.8816-10.0352 15.2064-20.8896 15.2064-35.1232 0-20.48-14.2336-33.024-34.304-33.2288-37.0688-0.3584-36.5056 28.5184-36.5056 39.68v3.584h22.4256c0.1536-6.0416-0.6144-12.4928 1.8944-18.176 1.6896-4.7616 6.0416-6.2976 11.2128-6.2976 6.8096 0 11.3664 3.584 11.3664 15.2064 0 12.1344-4.1984 16.3328-11.776 24.6784l-11.5712 12.3392c-14.848 15.5648-21.0944 27.3408-22.5792 36.096a209.408 209.408 0 0 0-2.0992 21.8112h70.2464zM929.28 565.8112c9.728 0 17.664-7.9872 17.664-17.664a17.6128 17.6128 0 1 0-17.664 17.664z m0-3.2256a14.4384 14.4384 0 0 1-14.3872-14.4384c0-7.936 6.4512-14.2336 14.4384-14.2336 7.936 0 14.2336 6.4512 14.2336 14.2336a14.1312 14.1312 0 0 1-14.2336 14.4384z m4.1984-12.9024c3.4304-0.2048 5.3248-1.6896 5.3248-5.12 0-1.8944-0.5632-3.7888-2.2528-4.9664-1.536-0.9216-3.6352-0.9216-5.12-0.9216h-9.3184v19.1488h3.7888v-8.1408h3.7888l4.1472 8.192h4.4032l-4.7616-8.192z m-7.5776-2.8672v-5.3248h4.5568c1.8944 0 4.5568 0 4.5568 2.5088 0 2.4576-1.536 2.816-3.584 2.816h-5.5296z" fill="#FFFFFF" /></svg>