<?xml version="1.0" standalone="no"?><!DOCTYPE svg PUBLIC "-//W3C//DTD SVG 1.1//EN" "http://www.w3.org/Graphics/SVG/1.1/DTD/svg11.dtd"><svg class="icon" width="200px" height="200.00px" viewBox="0 0 1024 1024" version="1.1" xmlns="http://www.w3.org/2000/svg"><path d="M295.5264 392.1408c19.456-16.4864 40.704-33.1776 62.6688-47.616-16.6912 55.04-19.8656 173.568 106.9056 193.536 95.232 15.0016 119.296 45.2096 108.0832 195.9424-19.5584 9.216-39.0144 16.896-58.88 24.064 12.544-62.464 26.4704-174.592-64.3072-192.8192-110.5408-22.272-167.936-36.864-154.4704-173.1072z" fill="#EA4646" /><path d="M373.248 334.6432a888.832 888.832 0 0 1 58.368-33.536c-21.504 100.864-14.336 188.416 103.7824 206.848 69.9904 10.9568 124.2624 36.2496 110.2336 186.368a713.728 713.728 0 0 1-54.3744 31.0272c10.3936-59.904 10.6496-180.8384-72.192-193.5872-124.5696-19.2-162.2528-53.248-145.8176-197.12z" fill="#EA4646" /><path d="M449.0752 292.7104c19.6096-8.7552 47.0528-20.48 57.856-23.552-21.3504 75.9296-10.496 195.9936 86.8352 211.968 90.9824 14.8992 132.8128 65.6896 123.1872 162.3552-18.4832 14.6944-35.4816 27.2384-54.4256 39.936 16.128-93.0816-18.432-172.2368-82.7904-181.5552-138.1376-20.0704-153.6-77.8752-130.6624-209.152z" fill="#EA4646" /><path d="M267.008 418.9184c-89.7024 84.6848-137.7792 197.7856-100.9152 280.064 41.984 93.7984 195.8912 111.0016 315.4944 68.7104 25.3952-110.7968 38.2976-172.3392-63.488-191.8976-148.1728-28.5696-149.9136-87.1936-151.0912-156.8768zM751.3088 612.4544c87.7568-85.8112 148.5824-202.5472 104.3456-289.0752-50.0224-97.792-207.9744-100.4544-316.0064-64.4608-31.744 86.528-23.04 194.3552 65.9456 207.3088 129.2288 18.7392 134.3488 72.8576 145.7152 146.2272z" fill="#1A2781" /><path d="M295.5264 392.0896c19.456-16.5376 40.704-33.1776 62.6688-47.6672-16.6912 55.0912-19.8656 173.6192 106.9056 193.536 95.232 15.0528 119.296 45.2608 108.0832 195.9936-19.5584 9.216-39.0144 16.896-58.88 24.064 12.544-62.5152 26.4704-174.592-64.3072-192.8704-110.5408-22.2208-167.936-36.864-154.4704-173.056z" fill="#DE1A1B" /><path d="M373.248 334.6432c18.8416-11.9808 37.4272-22.3232 58.368-33.536-21.504 100.864-14.336 188.416 103.7824 206.848 69.9904 10.9568 124.2624 36.2496 110.2336 186.368-18.5344 11.8784-35.5328 21.0944-54.3744 31.0272 10.3936-59.904 10.6496-180.8384-72.192-193.5872-124.5696-19.2-162.2528-53.248-145.8176-197.12z" fill="#DE1A1B" /><path d="M449.0752 292.7104c19.6096-8.7552 47.0528-20.48 57.856-23.552-21.3504 75.9296-10.496 195.9936 86.8352 211.968 90.9824 14.8992 132.8128 65.6896 123.1872 162.4064-18.4832 14.592-35.4816 27.136-54.4256 39.8848 16.128-93.0304-18.432-172.2368-82.7904-181.5552-138.1376-20.0704-153.6-77.8752-130.6624-209.152z" fill="#DE1A1B" /></svg>