<?xml version="1.0" standalone="no"?><!DOCTYPE svg PUBLIC "-//W3C//DTD SVG 1.1//EN" "http://www.w3.org/Graphics/SVG/1.1/DTD/svg11.dtd"><svg t="1741404025148" class="icon" viewBox="0 0 1075 1024" version="1.1" xmlns="http://www.w3.org/2000/svg" p-id="5415" xmlns:xlink="http://www.w3.org/1999/xlink" width="209.9609375" height="200"><path d="M398.848 872.8576c-36.8128-8.704-69.9904-47.616-76.6976-89.856-3.84-24.3712 0.4096-44.4416 14.08-66.4576 4.096-6.5536 69.0176-74.0864 151.7568-157.7984 84.48-85.504 147.6096-151.1424 151.8592-158.0032 8.6016-13.824 17.5104-35.1744 19.7632-47.36 0.9216-4.8128 2.816-9.216 4.2496-9.728 3.1232-1.2288 85.0944 81.0496 100.352 100.7616 28.3648 36.096 32.1024 51.8144 32.256 69.7856-0.1024 27.392-11.776 39.3728-25.2416 59.8016-9.216 13.8752-274.944 277.7088-290.0992 287.8976-5.376 3.6352-14.9504 8.192-21.1968 10.0352-12.4928 3.7376-47.104 4.2496-61.1328 0.9216z" fill="#52C9A3" p-id="5416"></path><path d="M419.328 389.0176C348.928 317.952 339.8656 307.968 333.7216 294.7072c-19.0464-40.96-11.264-87.3472 19.712-117.0432 7.2704-7.0144 18.3296-15.36 24.576-18.4832 31.3344-16.0256 74.6496-13.0048 103.7824 7.168 5.5808 3.84 32.256 29.3888 59.392 56.7808 42.7008 43.1104 50.3808 51.9168 57.1904 65.792 14.2848 29.184 12.6976 56.4736-5.2224 91.2384-6.7072 12.9536-15.5648 23.552-43.7248 52.2752-32.3584 33.024-35.9936 36.0448-43.3152 35.9936-7.5264 0-13.0048-5.0176-86.784-79.4112z" fill="#14A8C9" p-id="5417"></path><path d="M256.6656 698.624l-4.9664-5.3248V327.5264c0-7.3728 11.776-9.8816 18.3296-9.9328 7.2704 0 14.336 6.5536 100.352 93.184 80.7936 81.2544 92.672 88.0128 92.6208 99.9936 0 11.9808-11.776 18.688-92.6208 99.9936-87.3472 87.8592-93.0304 93.1328-100.7104 93.1328a16.64 16.64 0 0 1-13.056-5.2736z" fill="#5369A9" p-id="5418"></path></svg>