<?xml version="1.0" standalone="no"?><!DOCTYPE svg PUBLIC "-//W3C//DTD SVG 1.1//EN" "http://www.w3.org/Graphics/SVG/1.1/DTD/svg11.dtd"><svg t="1741404100405" class="icon" viewBox="0 0 1024 1024" version="1.1" xmlns="http://www.w3.org/2000/svg" p-id="6085" xmlns:xlink="http://www.w3.org/1999/xlink" width="200" height="200"><path d="M512 921.6a409.088 409.088 0 0 1-409.6-409.6c0-226.6112 182.9888-409.6 409.6-409.6s409.6 182.9888 409.6 409.6c0 226.3552-182.9888 409.6-409.6 409.6z" fill="#000000" p-id="6086"></path><path d="M731.0336 450.7648h-80.384v121.2416h80.384c33.536 0 60.9792-27.648 60.9792-60.9792 0-33.28-27.4432-60.2624-60.9792-60.2624zM256.9728 511.744a169.984 169.984 0 0 0 169.7792 169.7792 169.984 169.984 0 0 0 169.7792-169.7792A169.984 169.984 0 0 0 426.752 342.016a169.984 169.984 0 0 0-169.7792 169.7792z" fill="#FFF100" p-id="6087"></path></svg>