<?xml version="1.0" standalone="no"?><!DOCTYPE svg PUBLIC "-//W3C//DTD SVG 1.1//EN" "http://www.w3.org/Graphics/SVG/1.1/DTD/svg11.dtd"><svg t="1741404097708" class="icon" viewBox="0 0 1024 1024" version="1.1" xmlns="http://www.w3.org/2000/svg" p-id="5941" xmlns:xlink="http://www.w3.org/1999/xlink" width="200" height="200"><path d="M177.152 512c0 33.6896 4.7616 66.2016 12.8 97.3824h474.0096a97.3824 97.3824 0 0 0 0-194.7648H189.952A387.8912 387.8912 0 0 0 177.152 512z" fill="#343741" p-id="5942"></path><path d="M832.512 309.0432c13.6192-12.544 26.3168-26.0608 37.888-40.448a388.608 388.608 0 0 0-303.7696-146.0224c-153.856 0-286.208 89.4976-349.44 219.0336h532.224c30.8224 0 60.4672-11.6224 83.0976-32.5632" fill="#FEC514" p-id="5943"></path><path d="M749.4656 682.3936H217.2416c63.1808 129.536 195.584 219.0336 349.3888 219.0336A388.608 388.608 0 0 0 870.4 755.4048a371.968 371.968 0 0 0-37.888-40.448 122.5216 122.5216 0 0 0-83.0464-32.5632z" fill="#00BFB3" p-id="5944"></path></svg>