<?xml version="1.0" standalone="no"?><!DOCTYPE svg PUBLIC "-//W3C//DTD SVG 1.1//EN" "http://www.w3.org/Graphics/SVG/1.1/DTD/svg11.dtd"><svg t="1741404021189" class="icon" viewBox="0 0 1075 1024" version="1.1" xmlns="http://www.w3.org/2000/svg" p-id="5273" xmlns:xlink="http://www.w3.org/1999/xlink" width="209.9609375" height="200"><path d="M170.24 333.0048a20.5312 20.5312 0 0 0-3.84 8.6016h-0.2048v84.1216a19.8656 19.8656 0 0 0 11.3664 16.6912l269.3632 158.2592a136.448 136.448 0 0 0 125.5424 0l269.5168-157.696a19.8656 19.8656 0 0 0 11.3664-16.7424l1.024-83.968-217.2416-116.8384L476.672 318.4128a19.3536 19.3536 0 0 0-11.3152 16.6912v83.8144c2.048 5.888 6.0928 10.9568 11.3152 14.336 2.56-35.84 42.496-58.2656 42.496-58.2656l116.9408-66.7648 152.576 82.8928-216.2176 128.3072a137.472 137.472 0 0 1-125.4912 0L220.4672 385.8432l226.4064-133.5296c19.3024-10.4448 40.96-15.6672 62.8736-15.2064V153.6a126.7712 126.7712 0 0 0-62.8736 15.1552L177.664 327.0656a20.5312 20.5312 0 0 0-7.3728 5.9392z m679.2192 236.8512a19.9168 19.9168 0 0 0 3.3792-9.8816l-0.3072-83.3024a19.8656 19.8656 0 0 1-11.3664 16.6912l-269.056 158.208a136.4992 136.4992 0 0 1-125.4912 0L177.0496 492.7488a19.8656 19.8656 0 0 1-11.3664-16.6912v83.456a19.8656 19.8656 0 0 0 11.3664 16.6912l269.568 158.4128a137.4208 137.4208 0 0 0 125.4912 0l269.3632-157.9008a19.968 19.968 0 0 0 7.9872-6.8096z m3.3792 119.6544a19.9168 19.9168 0 0 1-11.3664 16.6912l-269.3632 157.7472a136.4992 136.4992 0 0 1-125.4912 0l-269.568-158.208a19.8656 19.8656 0 0 1-11.3664-16.7424v-83.456a19.712 19.712 0 0 0 11.3664 16.6912l269.568 158.4128a137.472 137.472 0 0 0 125.4912 0l269.056-157.9008a19.5584 19.5584 0 0 0 11.3664-16.6912l0.3072 83.456z" fill="#9F53E6" p-id="5274"></path></svg>