<?xml version="1.0" standalone="no"?><!DOCTYPE svg PUBLIC "-//W3C//DTD SVG 1.1//EN" "http://www.w3.org/Graphics/SVG/1.1/DTD/svg11.dtd"><svg class="icon" width="200px" height="200.00px" viewBox="0 0 1024 1024" version="1.1" xmlns="http://www.w3.org/2000/svg"><path d="M887.0912 296.32853333H107.6224v427.4688h779.4688V296.27733333z" fill="#1021FF" /><path d="M887.0912 360.43093333c-365.568 45.2096-688.2304 165.7856-770.56 363.3664h770.56V360.43093333z" fill="#0C08D5" /><path d="M531.3536 477.32053333h44.4416v72.6016h39.424V477.32053333h44.3392v195.6864h-44.4416v-81.2544h-39.424v81.2544h-44.4928V477.32053333h0.1536z m210.176 72.6016h-42.9568c0-14.6432 0.5632-26.112 1.7408-34.4576 1.1776-8.3456 3.84-15.7184 7.68-22.016a39.9872 39.9872 0 0 1 17.7152-15.36c7.936-3.84 17.4592-5.7344 28.3136-5.7344 18.0224 0 32 4.6592 41.6768 14.2336 9.6768 9.5232 14.4896 23.1424 14.4896 41.0624 0 9.216-1.8944 19.0464-5.5808 29.6448-3.6352 10.5472-9.216 22.272-16.6912 34.8672l-24.064 41.1136h39.424v39.8848h-111.4624l64-109.1584c7.7312-13.056 11.7248-24.9344 11.7248-35.7888a22.528 22.528 0 0 0-3.584-13.2096c-2.304-3.3792-5.2224-5.12-8.7552-5.12-5.5808 0-9.216 2.2016-10.8544 6.6048-1.7408 4.4032-2.5088 13.2096-2.5088 26.2656v7.168h-0.3072z" fill="#FFFFFF" /></svg>