<?xml version="1.0" standalone="no"?><!DOCTYPE svg PUBLIC "-//W3C//DTD SVG 1.1//EN" "http://www.w3.org/Graphics/SVG/1.1/DTD/svg11.dtd"><svg class="icon" width="200px" height="200.00px" viewBox="0 0 1024 1024" version="1.1" xmlns="http://www.w3.org/2000/svg"><path d="M570.112 218.624c-7.0656-19.3536-250.2656-113.92-253.3888-103.5264-44.6464 11.6224-62.8224 63.1296-93.5424 95.744L154.9312 206.848c-30.0032 38.656-45.7728 78.1312-35.072 119.1936 38.5536 52.1728 83.2512 96.5632 111.104 162.0992 2.2016 30.9248 133.7344 3.2256 161.8944-2.8672-38.5024 27.5456-72.0384 70.2976-57.6 193.3312 13.1584 57.8048 22.1184 122.3168 138.8032 187.648 15.36 8.6016 47.1552 18.5344 66.816 25.8048 18.7904 8.6016 40.7552 12.1344 102.7584-6.8096 35.84-15.4624 74.5984-24.7808 109.7216-40.192l-42.1888 1.9456c-58.112 1.28-102.9632 5.632-116.8384-10.5984l-53.4528-92.3648 31.1808-60.5184c43.1616 4.4032 57.4976 39.424 95.488 52.736l44.8512-33.2288c130.2016 76.8512 182.016-48.6912 196.864-146.4832-1.5872-39.8336-86.1696 12.4416-81.0496-6.144 1.9968-42.8032-32.8704-98.7648-55.3984-142.336l26.112-100.864c11.776-10.5472-54.784-122.7776-109.2096-136.7552-47.6672-12.288-119.6032 48.128-119.6032 48.128z" fill="#FDEE21" /><path d="M784.0768 432.9984c0.4608 10.8032 0.4096 24.0128 1.4336 32.256-0.1536 6.2464-4.864 6.5024-8.7552 7.7824l25.344 9.2672c5.0176 8.4992 9.0624 16.896 13.1584 25.3952 4.7104 20.8384 1.1776 21.4528-1.9456 22.9376-9.216 0.1024-18.3808 0.1536-26.9312-1.6896 3.84 2.048 4.6592 3.5328 5.12 6.144 0.7168 4.7104-2.3552 11.264-7.424 17.5616 7.4752 4.1472 21.1456 8.192 31.2832 12.0832l11.5712-25.7536c-5.2224-37.888-21.1456-72.704-42.8544-105.984z m47.2576 126.976c14.08 5.8368 33.4848 4.096 60.416-9.728 3.9936-2.8672 7.68-1.1776 0.512 3.4816-35.2768 31.6928-52.1728 15.872-60.928 6.1952z" fill="#C8C037" /><path d="M894.464 546.048c4.096 7.9872 1.5872 14.4896 0.2048 21.248a180.224 180.224 0 0 1-36.0448 89.856c-68.3008 109.824-137.2672 41.1136-192.256-3.584l-22.7328 56.9344c-1.2288 5.0176-6.2464 8.9088 29.2864 24.576l36.1984-25.6c137.9328 104.96 235.7248-146.944 185.2928-163.4304z m-211.456 98.1504c-9.3184 0.6144-37.0176 10.0352-38.2464 15.5136l12.8-18.9952 25.4464 3.4816z m-18.0736-116.48c1.6896 0 9.8816 2.2016 9.0112 1.7408-1.28-0.7168-0.1536 11.4688 2.4064 17.8176l-9.984 21.7088c19.1488-22.016 49.408-20.5824 77.4656-23.3984l-13.3632-8.3456c2.304-7.7312-0.4096-13.8752-1.7408-20.48l-63.7952 10.9568z m47.0016-65.4336c-20.5312 6.2976-40.192 16.5888-53.3504 38.5024 10.0352-36.1472 12.0832-34.7648 15.36-36.5568 14.0288-6.2976 25.6-2.3552 37.9904-1.9456z" fill="#C8C037" /><path d="M602.2656 885.76c-24.832 27.3408-80.2304-2.0992-126.208-17.152-116.8896-74.2912-139.7248-144.2816-141.312-212.9408-6.0416-98.304 24.1664-155.4432 62.3616-168.96-25.2928 48.7424-37.0688 136.192-25.344 201.216 9.472 36.1984 9.6768 97.2288 70.1952 129.8944 29.696 16.64 21.6064 29.696 41.6768 45.312 21.9648 17.1008 83.2 33.3824 118.6304 22.5792z m37.0688-454.4512c-41.984-59.5968-101.12-81.92-167.7824-84.3776 13.312-4.352 26.7264-6.656 40.0896-13.056 3.2256-3.4304 2.2016-9.5232 0.9728-15.6672-64.2048-16.7424-104.6528-37.4272-155.9552-56.6272l138.3936 33.2288c93.44 3.5328 85.4528 26.624 144.2816 136.4992z m45.0048-28.7232c-31.0784-44.3392-61.184-98.1504-102.0416-132.352-98.7136-44.544-196.352-77.6704-310.784-107.776l36.5056-46.9504c121.4464 27.6992 235.52 74.0864 337.664 150.528 17.2544 43.7248 28.7744 87.552 38.656 136.5504z m62.6176-78.336s-17.408-39.0656-25.9072-54.016c-19.6608-21.76-29.5936-62.3616-69.888-81.5104 12.8 3.4304 21.504-0.6656 47.4624 22.8864l40.96 77.7216 7.3728 34.9184z m21.6576 67.6864c3.9936-33.8944 11.6224-88.1664 2.8672-109.568l-73.3696-97.792c-4.096-3.7888-7.0144-8.96-10.1888-12.9536 34.5088 8.96 70.5024 32.9216 119.04 127.5904l-38.3488 92.672z" fill="#FCF6A0" /><path d="M623.616 395.9296c-13.7216-10.8544-25.9584-49.1008-46.7968-57.0368-19.2512-1.5872-26.3168-7.68-51.6608-2.5088 9.216-4.608 17.92-10.496 27.648-13.6192 6.656-1.5872 12.8 0.1536 19.1488 1.024 1.536-0.768 2.56-1.6384 2.2016-3.072-25.4976-15.7184-77.824-15.9744-113.152-24.9344 40.96 1.3312 86.3232-0.9216 117.1456 8.96 24.7808 22.016 32.768 63.3856 45.4656 91.136z m75.1104-184.4224c5.6832 0.512 36.352 48.896 37.7344 56.9856 2.56 17.6128 8.8064 37.376 10.496 55.808-5.0176-17.7152-10.496-35.3792-17.408-53.0432-1.9968-4.864-7.0656-15.872-21.1456-31.4368-6.6048-10.9568-7.9872-19.6096-9.6768-28.3136z m103.7312 263.68h-13.1072l14.4896 3.7888-1.3824-3.7888z m-89.344-13.1072a118.272 118.272 0 0 0-39.8336 1.0752c-5.376 7.168-5.7344 14.5408-8.0896 21.2992 16.0256-17.6128 22.3744-18.688 47.9232-22.3744z m179.5584 91.0336c-7.3216 5.8368-8.0384 11.3664-29.696 17.92-15.8208 3.7888-24.7296-2.56-32.1536-11.0592 11.264 3.2256 13.056 11.7248 43.3152 2.2016l18.5344-9.0624z m-65.6384 3.6864c-5.2736 14.4896-10.9568 29.184-16.6912 42.752-13.6704 15.9744-7.8336 6.8608-28.2624 31.744 6.5536-10.0864 15.0528-19.8144 19.456-30.3104 3.1744-6.912 7.0656-14.2336 8.7552-20.3776-5.376-2.7136-16.4864-2.9184-17.9712-1.9456-18.176 10.7008-21.504 22.016-32.1536 33.0752 7.7312-12.3904 14.336-25.9584 23.3984-37.12 1.024-1.4336 7.68-1.7408 11.776-2.56-6.4-1.1264-18.176-3.3792-19.0976-3.2768-11.8784 2.816-18.4832 13.1584-27.2896 19.968 6.4-9.216 12.288-18.8928 20.48-26.8288 0.768-0.9216 22.784 1.024 34.2016 5.5296l0.2048 4.5568 6.5024 2.6112 4.864-12.1856 11.776-5.632z m-143.7184 87.3984c-2.9696-1.024-28.7744-4.3008-28.7744-3.5328-9.9328 7.0656-11.4176 13.824-11.2128 19.6608 16.4864-16.2304 15.872-16.2816 39.936-16.128z m-19.6608-116.736s18.6368-2.7136 18.2784-0.9728c-1.3312 6.5024 2.304 22.2208 2.6624 20.0192l-10.4448 8.5504c21.9136-11.008 45.056-8.8064 68.4544-10.496 0 0-19.712-5.4272-18.5344-5.632 4.4032-0.6144-1.1776-20.5312-2.6624-20.992 3.7376-1.2288 7.424-2.2016 11.2128-3.1744-28.2112-7.3728-44.544-3.0208-68.9664 12.6976z" fill="#000000" /><path d="M824.9856 541.3888l-4.096 2.048c-0.6144-12.1344-13.6704-11.264-24.6784-11.3664l-8.96-2.1504c2.7136 2.56 11.2128 2.304 7.7824 7.7824-2.8672 1.536-4.1984 8.192-5.8368 13.6704l-4.9152 0.256 26.112 10.24 5.5808 0.8704 13.3632-7.168-4.352-14.1824z" fill="#000000" /><path d="M701.44 533.1968c-2.048-4.1472-12.6464-3.584-14.8992-0.8704-1.8432 2.2016-0.1536 16.1792 2.2528 13.824a18.0736 18.0736 0 0 1 13.312-4.0448 16.1792 16.1792 0 0 0-0.6656-8.9088z m101.2224 20.8384c0.9728-0.7168 3.072-7.68 2.4064-9.8304-1.3824-4.9664-11.2128-3.8912-11.2128-3.8912-2.4064 1.3824-4.5056 9.1136-3.584 11.6736 0.4096 2.1504 10.752 2.816 12.3904 2.048z" fill="#FFFFFF" /><path d="M383.0784 796.2624l6.144 0.6144c36.7616 18.0224 97.28 44.8 184.832 30.4128l13.824 21.6064c-38.6048 18.7392-80.128 14.4384-118.9888 15.7696l-85.8112-68.4032z m-52.736-142.6432l18.3808 77.312c49.2544 30.7712 133.4272 66.048 203.6224 63.232l-15.5136-35.584c-146.432-31.1296-158.8736-70.4512-206.5408-104.96z m45.7728-158.2592c8.96 59.904 20.992 105.2672 73.0624 143.3088 31.9488 22.9376 63.5904 45.7728 102.144 64.6656 0 0-3.3792 17.5616-6.1952 17.2544-114.688-12.7488-198.656-107.8272-208.7936-151.2448 9.8304-33.28 23.9616-54.1184 39.7824-73.984z m55.0912-33.9456c15.3088 66.3552 51.712 133.632 87.9616 194.56 13.312 16.896 16.7424 24.32 37.2224 34.56 27.648 8.704 47.2064 6.5024 67.2768 5.1712-5.5296-10.1376-10.3936-20.7872-16.6912-30.3616-44.9536-35.5328-24.2176-67.8912-12.288-88.4224-24.9856-6.2976-58.0608-19.712-62.6176-37.376-7.3728-57.088-3.6352-75.264 3.6864-104.5504-33.792 7.168-68.096 14.2336-104.4992 26.4192z" fill="#000000" /><path d="M307.0464 108.8512c-11.1104 7.2704-21.8624 17.664-33.3824 29.44-19.0976 19.8144-31.8464 39.1168-51.3024 53.4016-3.8912 3.3792-14.7968 8.7552-28.5184 9.5744-6.4512 0.3072-10.7008 1.3824-22.528-0.1024-10.496-5.632-20.48-1.9968-30.208 9.6256-10.6496 15.36-24.1152 44.3904-29.696 62.72-11.5712 46.6944 17.92 85.1968 46.1312 114.8416 25.1904 24.576 39.68 39.936 50.0224 62.464 7.7824 14.6432 13.6192 34.6624 19.8656 48.7424 2.2528 4.4544 1.792 4.4032 7.8848 5.7856 13.1584 2.7648 31.3856 2.816 47.616 4.1984 7.0144 0.1024 16.64-0.1536 25.8048-1.1264 12.5952-2.3552 27.392-4.7104 39.7824-8.96 12.1344-3.0208 22.8864-7.168 32.6144-10.9568-1.2288 4.3008-10.496 8.3968-13.9776 13.824-32.9728 47.1552-41.984 89.1904-36.3008 155.4944 3.2768 29.3888 10.0352 53.76 20.1728 81.6128 4.6592 12.7488 14.592 32.9216 24.064 46.336 28.2624 39.936 91.392 91.136 179.3536 110.848 15.36 2.0992 32.768 1.024 49.152-3.3792 43.3664-13.1584 131.7888-44.2368 131.7888-44.2368s-78.4896 6.5024-114.432 2.9184c-8.3456-1.28-17.5104-1.7408-23.296-7.424-1.024-1.2288-4.5056-8.3456-2.2528-8.448 3.1232-0.0512 12.0832-3.7888 25.856-5.0176-29.44-3.1744-29.0304-3.072-31.1808-8.4992a336.7936 336.7936 0 0 0-13.7216-29.696c12.9536 1.1264 41.6256 2.7136 51.3024-7.3216 0 0-16.896 1.9456-31.9488 0.2048a92.0576 92.0576 0 0 1-16.2304-4.608c-6.7072-2.6112-12.288-3.4304-13.5168-5.12-2.3552-5.9904-3.9424-7.936-6.7584-15.9232-3.84-10.5472-4.096-22.3232-4.864-33.0752 9.7792 12.0832 22.3232 22.2208 38.8608 27.4432 0.2048-0.4608 21.4528 9.216 36.864 4.2496l3.2256-1.024c0 0.256-10.24 0.8704-13.9776-0.9728-31.3856-13.312-36.096-24.9856-41.1648-30.8224l-13.568-20.2752c4.096-8.192 6.4512-8.5504 11.9296-8.6016 16.4864 1.8432 23.7056 3.2256 33.792 0.8192 6.7584 13.9776 8.6016 28.0064 24.064 38.1952 51.5072 15.3088 62.6688-4.5568 75.1616-22.016 37.0688 27.136 97.3824 35.5328 139.264 0.4096 53.248-61.5936 70.144-158.7712 65.4336-164.352-6.656-11.264-15.36-22.8864-22.8864-21.2992-26.7264 7.3216-36.5568 20.8384-63.0272 17.7664 3.1744-0.2048 8.448-0.256 8.4992-0.5632 2.048-22.4256-0.1536-33.28-1.1776-35.1232-7.9872-17.7152-18.5344-36.352-25.9072-50.3296-1.8944-2.9184-7.4752-24.8832-16.7936-33.5872-3.9936-3.4304-13.824-12.4416-13.824-12.4416l-0.8192 9.5744s3.84 0.5632 5.3248 6.5024c5.5296 22.528 33.6384 75.6224 35.6864 78.1824 9.984 16.128 1.024 36.1472 8.6016 47.4112 0.7168 1.3824 15.4624-0.1536 26.88 0.512 18.7392-3.9936 17.92-12.288 34.2016-13.5168 10.9056-0.8192 12.032 19.6608 11.8784 21.248-2.048 22.6816-8.96 48.9984-19.456 73.0624-21.9648 42.24-46.5408 80.1792-81.3568 85.504-42.496 7.424-64.512-11.1616-87.552-22.9888l-8.8576 7.5264c-29.9008 29.7984-65.4336 27.136-79.9744-11.776-7.2192-15.104-16.64-24.3712-24.7296-37.376l-42.8032 30.8736c-3.584 7.3216-7.9872 18.8416-13.312 31.744a105.472 105.472 0 0 0-6.6048 37.0688c-5.4784 9.3184 19.0464 47.2576 34.5088 70.2976l13.3632 19.456c3.072 7.936 9.8304 15.0016 10.24 15.872 28.672 37.4784-36.2496 28.8256-49.664 26.5728-26.5216-4.1984-52.4288-15.3088-76.8-30.0544l-4.1984-2.6112a444.2624 444.2624 0 0 1-78.1824-64.6144c-13.4656-15.2576-26.3168-46.592-35.84-68.8128-14.1824-53.4016-34.6112-145.92 20.6848-216.064 3.4816-3.9936 7.2704-10.7008 10.496-12.032 16.4352-11.1104 34.304-18.688 53.4528-22.8864l-1.9456-12.4416a358.6048 358.6048 0 0 0-50.944 18.944c-20.736 5.9904-37.9392 12.288-64.4096 18.944-8.6016 1.024-17.0496 1.024-25.2928-0.1024-18.9952-2.56-51.4048-0.256-53.504-2.2016-12.8512-17.92-16.384-50.1248-28.16-67.328L209.92 428.7488l-0.1536-0.1536c-6.8608-9.216-14.848-16.6912-22.7328-24.5248-28.16-27.9552-52.224-55.04-58.9824-83.712-1.6896-8.448-6.0416-17.2032-3.7376-42.24v-0.1536l0.1024-0.1024c6.7584-23.3984 17.7664-42.496 36.4544-61.5936 19.456 0.3072 38.7584 0.768 53.76 3.584 6.8608 1.1776 21.1968 3.072 35.9936 8.5504 37.4272 13.9776 86.8864 36.864 86.8864 36.864-37.12-20.3776-78.6432-46.848-104.8576-52.224-3.8912-0.512-6.2976-2.304-7.424-5.4272 39.424-23.1424 46.592-50.432 72.5504-74.9056 11.8784-5.12 16.4864-7.7824 26.5728-8.8576 93.1328 14.6944 151.7568 51.8144 198.144 76.5952 18.8416 10.24 35.9424 17.9712 52.2752 27.3408 14.336 4.7104 57.5488 37.376 70.2464 54.9376 12.8 27.136 22.2208 56.4224 30.7712 84.736 6.144 28.7744 11.52 40.448 11.52 40.448s-5.2224-24.064-4.352-28.416c5.4272 2.048 18.2272 6.0416 23.552 5.4272 0 0-23.7056-12.288-26.8288-23.04-9.9328-34.7648-19.968-88.7808-22.6304-91.5968-7.5776-9.5232-39.2192-33.792-58.624-44.9536-7.3216-4.2496-11.264-6.8608-11.6224-8.704 6.1952-6.2976 13.824-14.592 20.736-19.8144 6.5536-5.0688 12.544-10.752 21.76-14.1824 40.2944-18.1248 63.3344 7.0144 68.8128 1.8944 0 0-8.704-9.9328-4.8128-8.2944 3.9424 2.1504 16.7936 4.6592 18.2272 5.9904 14.6944 11.4688 53.0944 53.4528 76.2368 97.792 5.5808 10.8544 7.8336 18.0224 5.2224 31.0784-2.56 13.1072-4.608 20.2752-7.3728 29.0304-2.56 5.8368-16.9984 45.824-16.896 51.2-2.9184 21.9648 9.3696 49.4592 9.3696 49.4592 0.1536-7.4752-0.4608-11.4688 0.256-16.7936l0.8192-9.5232s-0.512-2.56-0.4608-3.584c0.6656-6.5536 2.2528-12.0832 2.7136-15.872 4.608-28.672 12.6976-49.3056 21.8112-74.4448 2.7136-6.3488 6.2464-9.8816 6.0928-14.6944 0.1536-8.6016-7.5264-20.0704-13.056-31.3344-5.632-11.3664-12.288-24.064-21.0944-37.376-19.968-28.7744-37.0688-51.3024-68.3008-65.3824-8.704-3.84-43.1104-7.5776-54.9888-5.376-14.3872 3.0208-26.7776 5.9904-36.6592 12.288-15.5648 9.984-27.7504 25.3952-42.0864 34.4576-31.744-15.872-47.0016-27.6992-49.8688-29.3376-18.8416-10.0864-41.472-21.8112-65.7408-32.9216-11.6736-10.9056-84.1216-36.864-150.4256-42.0864h-0.0512z m405.4016 591.104c-19.5584-15.2576-35.9936-31.0272-46.848-47.1552-3.5328 18.9952-16.384 32.5632-26.3168 45.8752-1.9456 3.1232-3.3792 7.424 6.3488 20.992 2.6112 3.6352 12.1344 4.2496 18.5344 3.9424-6.5024-4.9664-16.4352-10.1376-18.0224-14.6944 11.4688 7.8336 22.016 10.0864 31.6416 8.8064 2.2016-0.256 4.9152-2.56 7.0144-6.144 4.3008-9.216 7.68-11.4176 11.008-13.8752l7.8336 9.728 8.8064-7.4752z" fill="#000000" /></svg>