<?xml version="1.0" standalone="no"?><!DOCTYPE svg PUBLIC "-//W3C//DTD SVG 1.1//EN" "http://www.w3.org/Graphics/SVG/1.1/DTD/svg11.dtd"><svg t="1741404622530" class="icon" viewBox="0 0 1075 1024" version="1.1" xmlns="http://www.w3.org/2000/svg" p-id="6668" xmlns:xlink="http://www.w3.org/1999/xlink" width="209.9609375" height="200"><path d="M551.6288 505.9072a49.664 49.664 0 0 0-21.248-3.9936c-21.76 0-33.28 17.7664-33.28 37.888v70.4512h-33.792V472.1152h33.792v15.4624c7.4752-12.032 21.248-17.2032 31.5904-17.7664a42.9568 42.9568 0 0 1 22.9376 3.4304v32.6656zM12.0832 412.4672H47.104v197.7856H12.0832V412.4672z m291.84 88.8832h-37.2736v108.9536h-33.792V501.3504h-17.2032v-29.2352h17.2032v-11.4688c0-29.2352 20.6336-48.128 53.8624-48.128h17.2032v29.184h-9.216c-22.8864 0-28.0576 8.6016-28.0576 27.5456v2.8672h37.2736v29.2352z m138.752 39.5776c0 40.704-25.2416 72.192-67.6352 72.192-43.008 0-68.2496-31.488-68.2496-72.192 0-41.3184 25.2416-71.1168 68.2496-71.1168 42.3936 0 67.6352 29.7984 67.6352 71.1168z m-33.28 0c0-22.3744-9.1648-42.4448-34.3552-42.4448-25.8048 0-34.9696 20.6336-34.9696 42.4448 0 22.8864 8.6016 43.008 34.9696 43.008 25.8048 0 34.4064-20.1216 34.4064-43.008z m-208.0768 69.3248H167.424v-75.6736c0-20.0704-6.912-33.792-27.5456-33.2288-17.7664 0-29.184 11.4688-29.184 34.4064v74.5472h-33.8432v-138.24h33.792v10.3424c9.728-8.6016 24.064-12.5952 37.2736-12.5952 32.7168 0 53.3504 21.8112 53.3504 54.4768v86.016z m398.4384 0v-81.92c0-15.5136 2.304-26.9824 17.2032-26.9824 9.216 0 14.336 4.608 14.336 21.76v87.1936h33.792v-82.0224c0-15.4624 2.3552-26.9312 17.2544-26.9312 9.1648 0 14.336 4.608 14.336 21.76v87.1936h33.792V509.952a39.5776 39.5776 0 0 0-10.2912-28.672 41.984 41.984 0 0 0-30.976-11.4688 50.688 50.688 0 0 0-32.1024 10.9056c-9.1648-8.6016-17.7664-10.9056-29.2352-10.9056a39.936 39.936 0 0 0-28.1088 11.4688v-9.216h-33.792v138.24h33.792z" fill="#FFFFFF" p-id="6669"></path><path d="M819.3536 450.8672c12.032 0 21.1968-9.1648 21.1968-20.6336A20.6848 20.6848 0 0 0 819.3536 409.6a20.5824 20.5824 0 1 0 0 41.2672z m0.5632 55.04l-26.9312 70.5536a81.0496 81.0496 0 0 0-3.4304 10.9056c-1.1264 5.12 1.7408 5.7344 5.12 3.9936 9.7792-4.0448 21.248-21.1968 26.4192-27.5456l4.608 2.304c-10.3424 18.944-29.8496 47.616-53.9136 47.616-10.9056 0-17.2032-7.4752-17.7664-17.2032-0.6144-8.6016 2.8672-16.64 5.12-24.064l25.8048-66.56c1.4336-3.7888 2.7648-7.5776 4.0448-11.4688 0.512-4.608-2.304-5.12-5.7344-3.4304-9.728 4.0448-21.248 21.248-26.368 27.5456l-4.608-2.304c10.9056-18.944 30.4128-47.616 54.4768-47.616 10.2912 0 15.4624 4.608 17.2032 12.6464 1.1264 5.7344 0 13.7728-4.0448 24.6272z" fill="#D35D35" p-id="6670"></path><path d="M825.7024 610.304l67.584-10.9056-55.552-4.0448 65.8944-10.2912-55.6032-5.1712 65.9456-9.728-55.6032-5.1712 66.5088-9.216-56.2176-6.8608 66.56-7.424-65.9968-8.0384 56.2176-6.912-65.9456-8.6016 56.1664-5.6832-65.8944-9.728 55.6032-4.608-65.3824-10.3424 55.6544-3.9936-67.072-11.4688h76.2368l25.8048 39.5264 25.1904-39.5264h43.6224l-48.1792 68.8128 52.1728 69.3248h-43.5712l-29.2352-42.3936-29.8496 42.3936h-75.0592z m190.3104-139.9296h3.9936c3.4816 0 4.608-1.1264 4.608-2.8672s-1.1264-2.304-3.9936-2.304h-4.608v5.1712z m5.12-6.8608c4.096 0 6.3488 1.1264 6.3488 3.9936 0 1.7408-0.5632 2.304-2.304 3.4304l0.6144 0.5632 0.512 1.1776c0.6144 0.5632 0.6144 1.1264 0.6144 2.304v1.1264l0.5632 0.5632v1.7408h-2.304c-0.512-0.5632-0.512-0.5632-0.512-2.304 0-3.4304-0.6144-3.9936-4.608-3.9936h-4.0448v6.2976H1013.76v-14.8992h7.4752z m-13.7216 7.424c0 6.912 5.7344 12.6464 13.2096 12.6464a12.7488 12.7488 0 0 0 12.5952-12.6464 12.288 12.288 0 0 0-12.5952-12.032c-7.4752 0-13.2096 5.1712-13.2096 12.032z m28.672 0c0 8.0384-6.8608 14.336-15.4624 14.336-8.6016 0-15.5136-6.2976-15.5136-14.336 0-7.9872 6.912-14.336 15.5136-14.336 8.6016 0 15.4624 6.3488 15.4624 14.336z" fill="#3B68AF" p-id="6671"></path></svg>