<?xml version="1.0" standalone="no"?><!DOCTYPE svg PUBLIC "-//W3C//DTD SVG 1.1//EN" "http://www.w3.org/Graphics/SVG/1.1/DTD/svg11.dtd"><svg t="1741404750879" class="icon" viewBox="0 0 1024 1024" version="1.1" xmlns="http://www.w3.org/2000/svg" p-id="6812" xmlns:xlink="http://www.w3.org/1999/xlink" width="200" height="200"><path d="M946.761143 240.88381a12.336762 12.336762 0 0 0-8.484572-2.925715c-8.484571 0-19.456 5.851429-25.35619 9.020953l-2.29181 1.219047c-9.898667 4.924952-20.675048 7.704381-31.695238 8.192-11.215238 0.341333-20.918857 1.024-33.54819 2.389334-74.800762 7.850667-108.153905 66.608762-140.288 123.367619-17.554286 30.96381-35.59619 63.049143-60.367238 87.576381a164.327619 164.327619 0 0 1-16.335238 14.140952c-25.6 19.553524-57.831619 33.499429-82.895238 43.398095-24.088381 9.411048-50.41981 17.895619-75.873524 26.136381-23.30819 7.509333-45.29981 14.628571-65.536 22.332953-9.118476 3.413333-16.871619 6.095238-23.698286 8.435809-18.432 6.144-31.695238 10.825143-51.2 24.527238a330.459429 330.459429 0 0 0-20.284952 15.311238c-15.408762 12.629333-29.062095 27.306667-40.521143 43.788191-9.898667 15.11619-21.308952 29.159619-34.084572 41.837714-4.096 4.144762-11.361524 6.144-22.235428 6.144-12.775619 0-28.233143-2.681905-44.617143-5.558857-16.871619-3.072-34.328381-5.948952-49.249524-5.948953-12.190476 0-21.455238 1.999238-28.42819 6.095239 0 0-11.702857 7.021714-16.62781 16.091428l4.876191 2.194286c7.509333 4.193524 14.433524 9.313524 20.675047 15.311238 6.485333 6.192762 13.750857 11.459048 21.552762 15.701333 2.486857 0.975238 4.729905 2.438095 6.631619 4.33981-2.048 3.072-5.022476 7.021714-8.143238 11.215238-17.261714 23.161905-27.355429 37.790476-21.601524 45.787428 2.779429 1.462857 5.851429 2.194286 8.972191 2.048 37.64419 0 57.880381-9.99619 83.480381-22.674285 7.41181-3.705905 14.969905-7.460571 23.893333-11.361524 15.018667-6.680381 31.110095-17.261714 48.176762-28.476952 22.381714-14.921143 45.738667-30.232381 68.412952-37.644191 18.627048-5.851429 38.034286-8.630857 57.539048-8.289524 23.942095 0 49.152 3.267048 73.435429 6.485334 18.090667 2.389333 36.864 4.87619 55.296 5.948952 7.119238 0.487619 13.750857 0.682667 20.187428 0.682667 8.582095 0 17.212952-0.487619 25.746286-1.414096l2.096762-0.731428c12.873143-8.094476 18.919619-25.551238 24.771047-42.422857 3.803429-10.825143 6.972952-20.577524 11.995429-26.819048a7.801905 7.801905 0 0 1 0.975238-0.78019 1.170286 1.170286 0 0 1 1.462857 0.243809v0.487619c-3.023238 65.926095-28.91581 107.76381-55.100952 145.017905l-17.554286 19.21219s24.527238 0 38.473143-5.510095c50.858667-15.60381 89.234286-49.883429 117.223619-104.643047a451.535238 451.535238 0 0 0 18.432-43.203048c0.487619-1.219048 4.87619-3.510857 4.486095 2.82819-0.195048 1.901714-0.292571 3.998476-0.438857 6.144 0 1.316571 0 2.633143-0.243809 3.900953-0.731429 9.264762-2.82819 28.672-2.828191 28.672l15.701333-8.630857c37.888-24.527238 67.096381-73.97181 89.234286-150.966857 9.216-32.085333 15.993905-63.878095 21.942857-91.964953 7.119238-33.743238 13.263238-62.610286 20.284953-73.874286 11.02019-17.554286 27.89181-29.45219 44.178285-41.008761 2.243048-1.560381 4.486095-3.072 6.680381-4.729905 20.48-14.774857 40.862476-31.744 45.348572-63.488v-0.731429c3.267048-23.649524 0.487619-29.696-2.633143-32.426666z" fill="#157997" p-id="6813"></path></svg>