<?xml version="1.0" standalone="no"?><!DOCTYPE svg PUBLIC "-//W3C//DTD SVG 1.1//EN" "http://www.w3.org/Graphics/SVG/1.1/DTD/svg11.dtd"><svg class="icon" width="200px" height="200.00px" viewBox="0 0 1024 1024" version="1.1" xmlns="http://www.w3.org/2000/svg"><path d="M707.072 419.7888c-48.128-215.2448-148.2752-272.5888-173.8752-313.088A462.592 462.592 0 0 1 505.344 51.2c-1.3824 19.0976-3.84 31.1808-19.8656 45.6704-32.1536 29.0816-168.704 142.0288-180.224 386.6112-10.7008 228.0448 165.1712 368.64 188.416 383.1808 17.92 8.9088 39.6288 0.1536 50.2272-8.0384 84.7872-59.0336 200.6528-216.4736 163.328-438.8352" fill="#10AA50" /><path d="M528.4864 716.8c-4.4544 62.2592-7.6288 98.4064-18.944 133.9904 0 0 7.424 59.2384 12.6464 122.0096h18.432c4.4032-44.1856 11.1104-88.064 20.1216-131.4304-23.8592-13.056-31.3344-69.9392-32.256-124.5696z" fill="#B8C4C2" /><path d="M546.304 870.4c-23.7056-11.4688-30.6176-65.28-31.6416-115.4048 5.8368-82.688 7.5776-165.632 5.12-248.4736-1.2288-43.52 0.5632-402.7392-10.24-455.3216 7.424 17.8176 15.9232 35.072 25.5488 51.712 25.2928 41.4208 124.5184 99.9424 172.032 319.744 37.0688 226.7136-76.9536 387.072-160.768 447.744z" fill="#12924F" /></svg>