<?xml version="1.0" standalone="no"?><!DOCTYPE svg PUBLIC "-//W3C//DTD SVG 1.1//EN" "http://www.w3.org/Graphics/SVG/1.1/DTD/svg11.dtd"><svg class="icon" width="200px" height="200.00px" viewBox="0 0 1024 1024" version="1.1" xmlns="http://www.w3.org/2000/svg"><path d="M805.2736 704c-38.1952-1.024-67.84 2.9184-92.672 13.6192-7.168 2.9184-18.5856 2.9184-19.5584 12.1856 3.84 3.84 4.3008 10.1888 7.68 15.5648 5.6832 9.728 15.7184 22.8352 24.7808 29.696 10.0352 7.7312 20.0704 15.5136 30.6176 22.3232 18.5856 11.7248 39.6288 18.4832 57.7536 30.208 10.5472 6.7584 20.992 15.5136 31.5392 22.8352 5.2224 3.8912 8.5504 10.24 15.2576 12.6464v-1.4848c-3.3792-4.352-4.3008-10.7008-7.6288-15.5648-4.7616-4.864-9.5744-9.216-14.336-14.08a229.5808 229.5808 0 0 0-49.664-49.152c-15.3088-10.752-48.7424-25.2928-54.9376-43.264l-0.9728-1.024c10.5472-0.9216 22.9888-4.864 32.9728-7.7824 16.2304-4.4032 31.0272-3.3792 47.7696-7.7824 7.68-1.9456 15.2576-4.4032 22.9376-6.7584V711.68c-8.6528-8.704-14.848-20.4288-23.8592-28.672a641.536 641.536 0 0 0-78.848-59.8528c-14.848-9.728-33.8944-16.0256-49.664-24.32-5.7344-2.9184-15.2576-4.352-18.6368-9.216-8.5504-10.752-13.3632-24.832-19.5584-37.4784a1216.768 1216.768 0 0 1-39.168-84.6848c-8.6016-18.944-13.824-37.888-24.32-55.4496-49.2544-82.688-102.7072-132.7616-184.832-181.9136-17.7152-10.24-38.7072-14.6432-61.1328-19.968-11.9296-0.512-23.8592-1.4848-35.84-1.9456-7.68-3.4304-15.3088-12.6464-21.9648-17.0496-27.2384-17.5104-97.3824-55.4496-117.4528-5.3248-12.9024 31.6416 19.0976 62.7712 30.0544 78.848 8.1408 11.1616 18.6368 23.808 24.3712 36.4544 3.328 8.2432 4.3008 17.0496 7.68 25.8048 7.5776 21.4016 14.7456 45.2096 24.7808 65.1776 5.2736 10.24 10.9568 20.9408 17.664 30.1568 3.84 5.376 10.496 7.7824 11.9808 16.5376-6.656 9.728-7.168 24.32-11.008 36.5056-17.2032 54.9888-10.5472 123.0848 13.824 163.4304 7.68 12.1856 25.8048 38.912 50.176 28.672 21.504-8.704 16.6912-36.4544 22.8864-60.7744 1.4336-5.8368 0.512-9.728 3.328-13.6192v1.024c6.7072 13.568 13.4144 26.6752 19.6096 40.3456 14.848 23.808 40.6016 48.64 62.1056 65.1776 11.4176 8.7552 20.48 23.8592 34.816 29.184v-1.4336h-0.9216c-2.8672-4.4032-7.168-6.3488-11.008-9.728a238.336 238.336 0 0 1-24.832-29.184 624.7936 624.7936 0 0 1-53.4528-88.576c-7.68-15.104-14.336-31.6416-20.5312-46.6944-2.8672-5.8368-2.8672-14.592-7.68-17.5104-7.168 10.7008-17.664 19.968-22.8864 33.024-9.0624 20.992-10.0352 46.7456-13.4144 73.5232-1.8944 0.512-0.9216 0-1.8944 0.9728-15.2576-3.8912-20.48-19.968-26.2656-33.536-14.336-34.6112-16.7424-90.0608-4.3008-129.9456 3.328-10.24 17.7152-42.2912 11.9808-52.0192-2.9184-9.3184-12.4416-14.592-17.7152-21.9136a193.6384 193.6384 0 0 1-17.152-31.1296c-11.4688-27.2384-17.2544-57.4464-29.5936-84.6848-5.7344-12.6464-15.8208-25.8048-23.9104-37.4272-9.0624-13.1584-19.0976-22.3744-26.2656-37.9392-2.3552-5.376-5.7344-14.1312-1.8944-19.968 0.9216-3.8912 2.8672-5.376 6.656-6.3488 6.1952-5.3248 23.9104 1.4848 30.1056 4.4032 17.664 7.2704 32.4608 14.1312 47.2576 24.32 6.656 4.864 13.824 14.08 22.4256 16.5376h10.0864c15.2576 3.3792 32.4608 0.9728 46.7968 5.376a303.104 303.104 0 0 1 68.7616 33.536 428.8512 428.8512 0 0 1 148.992 166.4c5.7344 11.1616 8.1408 21.4016 13.3632 33.0752 10.0352 23.8592 22.4768 48.1792 32.4608 71.5264 10.0352 22.8864 19.6096 46.1824 33.9456 65.1776 7.168 10.24 35.84 15.5648 48.6912 20.9408 9.5744 4.352 24.3712 8.2432 32.9728 13.6192 16.2304 10.1888 32.4608 21.8624 47.7696 33.0752 7.5776 5.8368 31.488 18.0224 32.9216 27.7504z" fill="#0A5AF6" /><path d="M321.7408 277.6064a5.12 5.12 0 0 0-3.584-1.536 80.2816 80.2816 0 0 0-20.992 2.6112 5.12 5.12 0 0 0-3.7888 4.9664v0.9728a5.12 5.12 0 0 0 2.6624 4.5056c2.048 3.4816 4.5056 6.5024 6.8096 9.216l1.9456 2.1504c2.048 2.304 3.8912 4.4032 5.4784 6.7072 1.8432 3.6864 3.584 7.424 5.3248 11.2128l0.2048 0.4608 5.3248 11.264a5.12 5.12 0 0 0 8.2432 1.3824 35.072 35.072 0 0 0 0.7168-0.768c8.192-6.144 11.776-15.6672 11.776-28.16a5.12 5.12 0 0 0-1.2288-3.2768 15.9744 15.9744 0 0 1-2.56-4.4544 25.7536 25.7536 0 0 0-10.24-12.5952l-1.7408-1.2288c-1.8432-1.28-3.2256-2.2528-4.352-3.4304z" fill="#0A5AF6" /></svg>