<?xml version="1.0" standalone="no"?><!DOCTYPE svg PUBLIC "-//W3C//DTD SVG 1.1//EN" "http://www.w3.org/Graphics/SVG/1.1/DTD/svg11.dtd"><svg t="1741404453555" class="icon" viewBox="0 0 1075 1024" version="1.1" xmlns="http://www.w3.org/2000/svg" p-id="6371" xmlns:xlink="http://www.w3.org/1999/xlink" width="209.9609375" height="200"><path d="M626.688 204.8h1.1776C492.7488 204.8 401.92 282.624 401.92 435.7632v93.3376c13.9264-6.0416 28.8768-9.5232 44.032-10.24 15.4112-0.6144 30.72 2.9184 44.288 10.24V435.7632c0-98.6112 54.5792-150.6304 136.96-150.6304 82.3808 0 136.9088 52.0192 136.9088 150.6304v238.7456h88.3712V435.712C852.48 282.6752 761.1904 204.8 626.688 204.8z" fill="#EDF4FF" p-id="6372"></path><path d="M440.9344 562.8928a61.8496 61.8496 0 0 0-44.2368 15.5136l-83.0976-54.272c2.2528-6.7072 3.1744-13.824 2.7136-20.8384a75.3152 75.3152 0 1 0-75.264 75.1104c16.128 0.9216 32-4.608 44.032-15.5136l83.0464 57.0368c-2.048 6.7584-2.8672 13.7728-2.5088 20.7872-0.4096 7.0144 0.4608 14.08 2.56 20.7872l-83.0976 57.2928a70.144 70.144 0 0 0-44.032-15.7696 75.3152 75.3152 0 1 0 75.264 75.3152 54.3232 54.3232 0 0 0-2.7136-20.7872l83.0976-57.0368c12.4928 10.1376 28.16 15.616 44.2368 15.5136a75.1104 75.1104 0 0 0 75.1104-75.3152 77.3632 77.3632 0 0 0-75.1104-77.824z" fill="#018BFF" p-id="6373"></path></svg>