<?xml version="1.0" standalone="no"?><!DOCTYPE svg PUBLIC "-//W3C//DTD SVG 1.1//EN" "http://www.w3.org/Graphics/SVG/1.1/DTD/svg11.dtd"><svg class="icon" width="200px" height="200.00px" viewBox="0 0 1024 1024" version="1.1" xmlns="http://www.w3.org/2000/svg"><path d="M906.5984 322.5088v265.1136a791.8592 791.8592 0 0 0-333.5168 39.7824 1051.5456 1051.5456 0 0 1-418.9184 54.8864V416.768c96.2048 9.216 195.6864 0.8192 293.5296-27.0336 13.2096-3.7888 26.7264-8.0896 39.936-12.3904a1054.976 1054.976 0 0 1 419.2256-54.8864h-0.256z" fill="#0181FD" /><path d="M496.5888 256a591.36 591.36 0 0 1-44.8512 17.0496c-7.0656 2.4064-14.08 4.608-21.3504 7.0144-5.6832 1.6384-11.3664 3.5328-17.3056 5.12-86.784 24.064-174.592 30.5664-259.4816 21.0944v88.6272a770.2528 770.2528 0 0 0 303.7696-31.0784l22.7328-7.2704c14.848-5.12 29.184-10.5472 43.52-16.4864L496.3328 256h0.256z" fill="#FFA005" /><path d="M563.8656 748.3904c14.592-6.1952 29.4912-11.8784 44.9024-17.0496 7.0144-2.4064 14.0288-4.608 21.3504-7.0144 5.632-1.5872 11.3152-3.4816 17.2544-5.12a685.568 685.568 0 0 1 259.4816-21.0944v-88.6272a770.304 770.304 0 0 0-286.72 25.9584c-5.7344 1.5872-11.4176 3.2256-17.0496 5.12l-22.7328 7.2704c-14.848 5.12-29.184 10.5472-43.52 16.4864l27.3408 84.0704h-0.3072z" fill="#07C846" /></svg>