<?xml version="1.0" standalone="no"?><!DOCTYPE svg PUBLIC "-//W3C//DTD SVG 1.1//EN" "http://www.w3.org/Graphics/SVG/1.1/DTD/svg11.dtd"><svg class="icon" width="200px" height="200.00px" viewBox="0 0 1024 1024" version="1.1" xmlns="http://www.w3.org/2000/svg"><path d="M158.208 333.0048a20.48 20.48 0 0 0-3.9424 8.6016H154.112v84.1216a19.8656 19.8656 0 0 0 11.3664 16.6912l269.3632 158.2592a136.448 136.448 0 0 0 125.4912 0l269.568-157.696a19.9168 19.9168 0 0 0 11.3664-16.7424l1.024-83.968-217.2928-116.8384-160.4096 92.9792a19.3536 19.3536 0 0 0-11.3664 16.6912v83.8144c2.0992 5.888 6.144 10.9568 11.3664 14.336 2.56-35.84 42.496-58.2656 42.496-58.2656l116.9408-66.7648 152.576 82.8928-216.2688 128.3072a137.472 137.472 0 0 1-125.44 0L208.384 385.8432l226.4064-133.5296c19.3024-10.4448 40.96-15.6672 62.8224-15.2064V153.6a126.7712 126.7712 0 0 0-62.8224 15.1552L165.4784 327.0656a20.5312 20.5312 0 0 0-7.3216 5.9392z m679.1168 236.8512a19.8656 19.8656 0 0 0 3.4304-9.8816l-0.3584-83.3024a19.8656 19.8656 0 0 1-11.3664 16.6912l-269.0048 158.208a136.448 136.448 0 0 1-125.5424 0L164.9664 492.7488A19.8656 19.8656 0 0 1 153.6 476.0064v83.456a19.8656 19.8656 0 0 0 11.3664 16.6912l269.5168 158.4128a137.4208 137.4208 0 0 0 125.5424 0l269.312-157.9008a19.8656 19.8656 0 0 0 7.9872-6.8096z m3.4304 119.6544a19.8656 19.8656 0 0 1-11.3664 16.6912l-269.3632 157.7472a136.448 136.448 0 0 1-125.5424 0l-269.5168-158.208A19.8656 19.8656 0 0 1 153.6 688.9472v-83.456a19.712 19.712 0 0 0 11.3664 16.6912l269.5168 158.4128a137.472 137.472 0 0 0 125.5424 0l269.0048-157.9008a19.5584 19.5584 0 0 0 11.3664-16.6912l0.3584 83.456z" fill="#1F80C4" /></svg>