<?xml version="1.0" standalone="no"?><!DOCTYPE svg PUBLIC "-//W3C//DTD SVG 1.1//EN" "http://www.w3.org/Graphics/SVG/1.1/DTD/svg11.dtd"><svg class="icon" width="200px" height="200.00px" viewBox="0 0 1024 1024" version="1.1" xmlns="http://www.w3.org/2000/svg"><path d="M363.8272 761.8048a251.8528 251.8528 0 0 1-252.8768-252.928A251.8528 251.8528 0 0 1 363.8784 256h296.2944a251.8528 251.8528 0 0 1 252.928 252.928 251.8528 251.8528 0 0 1-252.928 252.8768H363.8272z m288.7168-89.3952a162.9696 162.9696 0 0 0 163.4816-163.5328 162.9696 162.9696 0 0 0-163.5328-163.4816H371.5072A162.9696 162.9696 0 0 0 208.0256 508.928c0 89.4464 74.0864 163.5328 163.4816 163.5328h281.0368z" fill="#C74634" /></svg>