<?xml version="1.0" standalone="no"?><!DOCTYPE svg PUBLIC "-//W3C//DTD SVG 1.1//EN" "http://www.w3.org/Graphics/SVG/1.1/DTD/svg11.dtd"><svg class="icon" width="200px" height="200.00px" viewBox="0 0 1024 1024" version="1.1" xmlns="http://www.w3.org/2000/svg"><path d="M637.0304 195.0208c46.7456-10.1376 96.8192-8.8576 141.824 8.2432 31.3856 12.2368 58.88 32.6144 79.7184 59.0848 9.8816 12.5952 11.1616 29.44 11.776 44.9024 0.512 36.8128-6.8608 73.216-16.2304 108.544-17.92 65.536-45.056 128.3584-79.1552 186.8288-3.3792 5.7344-7.0656 11.264-11.1104 16.5888l-1.28-6.5024c4.2496-11.264 10.4448-21.8624 12.8512-33.792 8.5504-33.792 1.3312-68.4544-1.7408-102.4-3.2256-32.0512 7.5776-63.232 7.3216-95.232 1.2288-15.616-4.864-30.4128-10.8544-44.4928-21.504-48.64-55.808-91.9552-99.7376-121.7024-10.7008-7.424-22.6816-12.6464-33.3824-20.0704z" fill="#326690" /><path d="M507.2896 199.4752a220.16 220.16 0 0 1 163.5328 44.9536 261.888 261.888 0 0 1 83.6096 116.9408c-26.6752-0.9728-56.9856-2.048-78.592 16.6912-19.5584 16.6912-22.1184 45.2096-17.7152 69.12 10.24 56.9856 43.4688 105.3184 67.9936 156.5184 6.5024 12.032 15.2576 22.528 23.552 33.28-9.9328 5.0688-20.992 9.8816-26.624 20.1728-9.8304 16.0768-6.3488 35.6864-8.8064 53.5552-5.632 50.0224-11.264 100.096-19.3024 149.76-3.7888 23.808-13.824 49.152-36.096 60.9792-22.7328 11.776-49.2544 19.0976-74.9056 15.104-24.32-4.3008-39.6288-27.2384-46.592-49.6128-5.0176-18.7392-5.5296-38.2976-6.9632-57.5488a1793.024 1793.024 0 0 1-1.3312-139.776c1.024-18.2272-8.192-37.1712-24.2688-46.08-7.7824-4.352-16.896-4.9664-25.6-5.632 6.8608-34.304 27.4944-63.8464 34.56-98.048 9.216-42.2912 4.096-86.3232-5.2736-128.1024-4.608-20.8384-20.2752-39.2704-41.1648-44.3392-32.1536-8.192-64.512 4.5568-93.2864 18.0736 3.584-47.2064 16.128-95.5392 44.6976-133.888a132.5568 132.5568 0 0 1 88.576-52.1216z" fill="#326690" /><path d="M262.2464 203.264c51.2-9.9328 103.68 0.6144 152.7808 15.7696a228.7104 228.7104 0 0 0-48.384 83.456 340.9408 340.9408 0 0 0-16.384 129.1264c2.048 30.72 0.9728 61.4912-3.1232 92.0064a125.6448 125.6448 0 0 0 39.68 107.4688c-19.8656 23.5008-40.96 45.9264-60.2112 69.9904-8.5504 10.1376-19.968 22.1696-34.5088 19.1488-16.9472-4.9664-27.7504-20.5824-37.1712-34.6624-25.5488-41.2672-40.96-87.8592-55.04-134.144-15.7696-54.784-29.0816-110.4384-36.7616-167.0144-3.7888-43.008-1.4336-89.1904 20.3776-127.488 16.3328-29.0816 46.7456-47.5648 78.7456-53.6064z m437.0944 198.6048c-6.2976 5.2224 0.512 12.9536 5.8368 15.4624 13.1072 7.7312 30.976-3.072 31.4368-18.2272a37.5296 37.5296 0 0 0-37.2736 2.7648z m-6.9632-7.168c18.8416-13.4656 43.4688-10.4448 65.2288-9.1136-0.9216 30.4128-10.24 60.2624-7.168 90.9312 2.7136 37.888 13.568 78.592-4.096 114.5344-23.7056-47.6672-54.3744-93.184-65.024-146.2784-3.072-16.896-3.7888-38.2976 11.0592-50.0224z" fill="#326690" /><path d="M439.4496 402.7904c-3.584 1.3312-7.424 3.7888-6.656 8.192 2.56 15.2064 22.6816 24.4224 35.328 15.0016 5.5808-3.1744 11.4176-11.9296 5.0176-17.2032-9.216-7.5264-22.528-9.0112-33.6896-5.9904z m-66.3552 11.6224c23.6032-15.4624 51.2-27.4944 79.8208-25.856a34.816 34.816 0 0 1 32.0512 25.9584c13.0048 52.3264 16.9984 110.4896-7.8848 160-8.5504 19.1488-15.872 38.8608-21.8112 58.9824-41.3696 0.4096-76.544-34.9184-83.9168-74.752-5.0176-22.528 1.536-45.1584 2.304-67.7376 1.7408-25.4976-0.0512-51.0976-0.512-76.5952z m372.9408 251.2896c6.144-4.608 14.848-8.7552 21.9648-3.7888 30.1056 16.0256 65.1264 8.192 97.1776 4.3008-19.6096 19.2512-46.6944 28.2624-73.3696 31.1808-17.664 2.0992-35.9936 2.7648-53.0432-3.1744 0.1024-9.728-0.4096-21.2992 7.2704-28.5184z m-303.36 37.3248c17.3056-9.4208 24.1664-30.1568 40.3456-40.7552 17.5616-2.56 30.464 23.9104 17.152 36.4032-26.0096 35.584-77.9776 42.3936-115.5584 23.04 18.5344-8.704 40.192-8.0384 58.0608-18.688z" fill="#326690" /></svg>