<?xml version="1.0" standalone="no"?><!DOCTYPE svg PUBLIC "-//W3C//DTD SVG 1.1//EN" "http://www.w3.org/Graphics/SVG/1.1/DTD/svg11.dtd"><svg class="icon" width="200px" height="200.00px" viewBox="0 0 1024 1024" version="1.1" xmlns="http://www.w3.org/2000/svg"><path d="M572.928 238.6944a36.096 36.096 0 1 0-51.0976-51.0464 36.096 36.096 0 0 0 51.0464 51.0464zM674.9696 340.7872a40.0896 40.0896 0 1 0-56.6784-56.7296 40.0896 40.0896 0 0 0 56.6784 56.7296zM777.0624 442.88a44.1344 44.1344 0 1 0-62.3616-62.3616 44.1344 44.1344 0 0 0 62.3616 62.3616zM879.0528 544.8704a48.128 48.128 0 1 0-68.096-68.096 48.128 48.128 0 0 0 68.096 68.096z" fill="#5D88D6" /><path d="M371.712 235.8784a32.1024 32.1024 0 1 0-45.4144-45.4144 32.1024 32.1024 0 0 0 45.4144 45.4144zM473.7536 337.92a36.096 36.096 0 1 0-51.0976-50.9952 36.096 36.096 0 0 0 51.0976 51.0464zM575.744 439.9616a40.0896 40.0896 0 1 0-56.7296-56.7296 40.0896 40.0896 0 0 0 56.7296 56.7296zM677.7856 542.0032a44.1344 44.1344 0 1 0-62.4128-62.4128 44.1344 44.1344 0 0 0 62.4128 62.4128zM779.8784 644.096a48.128 48.128 0 1 0-68.096-67.9936 48.128 48.128 0 0 0 68.096 68.0448z" fill="#32DBFC" /><path d="M170.496 233.1648a28.1088 28.1088 0 1 0-39.68-39.7312 28.1088 28.1088 0 0 0 39.7312 39.7312zM272.4864 335.104a32.1024 32.1024 0 1 0-45.3632-45.4144 32.1024 32.1024 0 0 0 45.3632 45.4144zM374.5792 437.248a36.096 36.096 0 1 0-51.0464-51.0976 36.096 36.096 0 0 0 51.0464 51.0976zM476.672 539.2896A40.0896 40.0896 0 1 0 419.84 482.56a40.0896 40.0896 0 0 0 56.7296 56.6784zM578.6112 641.3312a44.1344 44.1344 0 1 0-62.3616-62.4128 44.1344 44.1344 0 0 0 62.3616 62.4128zM680.6528 743.2192a48.128 48.128 0 1 0-68.096-68.096 48.128 48.128 0 0 0 68.096 68.096z" fill="#000000" /><path d="M371.712 632.6784a32.1024 32.1024 0 1 0-45.4144-45.4144 32.1024 32.1024 0 0 0 45.4144 45.4144zM249.8048 741.2736a32.1024 32.1024 0 1 0 0-64.2048 32.1024 32.1024 0 0 0 0 64.2048zM150.6304 840.5504a32.1024 32.1024 0 1 0 0-64.2048 32.1024 32.1024 0 0 0 0 64.2048zM348.9792 840.4992a32.1024 32.1024 0 1 0 0-64.2048 32.1024 32.1024 0 0 0 0 64.2048zM570.112 831.1296a32.1024 32.1024 0 1 0-45.4144-45.3632 32.1024 32.1024 0 0 0 45.4144 45.3632zM470.8864 731.8528a32.1024 32.1024 0 1 0-45.3632-45.4144 32.1024 32.1024 0 0 0 45.3632 45.4144z" fill="#5D88D6" /></svg>