<?xml version="1.0" standalone="no"?><!DOCTYPE svg PUBLIC "-//W3C//DTD SVG 1.1//EN" "http://www.w3.org/Graphics/SVG/1.1/DTD/svg11.dtd"><svg class="icon" width="200px" height="200.00px" viewBox="0 0 1024 1024" version="1.1" xmlns="http://www.w3.org/2000/svg"><path d="M844.8 724.85546666c-38.4512 20.1728-238.2336 102.2976-281.2416 124.8768-43.008 22.528-66.048 21.9136-99.7376 5.8368-33.6384-16.128-245.504-102.2464-283.904-120.6272-19.3536-9.0624-29.184-16.8448-29.184-24.064v-73.1136s276.6848-60.0576 321.3824-76.2368c44.6464-16.1792 60.1088-16.5888 98.048-2.6624 37.9392 13.9264 265.4208 54.9888 303.0016 68.608v72.0384c0 7.4752-8.6528 14.848-28.3136 25.2928v0.0512z" fill="#A32422" /><path d="M844.8 652.10026666c-38.4512 20.0192-238.2336 102.1952-281.2416 124.3648-43.008 22.1696-66.048 21.9648-99.7376 5.9392-33.6896-16.0768-245.504-102.1952-283.904-120.4224-38.4-18.2272-39.1168-30.9248-1.4848-45.6704 37.632-14.6944 248.9856-97.4336 293.6832-113.7152 44.6464-16.2816 60.1088-16.64 98.048-2.6624 37.9392 13.9264 236.8512 92.9792 274.2272 106.752 37.376 13.7216 39.0656 25.088 0.4096 45.056v0.3584z" fill="#DC382C" /><path d="M844.8 605.81546666c-38.4512 20.0704-238.2336 102.1952-281.2416 124.3648-43.008 22.1696-65.8944 21.9648-99.5328 5.8368-33.6896-16.1792-245.76-101.8368-284.16-120.1152-19.3024-9.216-29.184-16.896-29.184-24.2176V518.87786666s276.736-60.2624 321.4336-76.4416c44.6464-16.1792 60.1088-16.64 98.048-2.56 37.9392 14.1312 265.4208 54.784 303.0016 68.5056v72.0896c0 7.4752-8.6528 15.0016-28.3136 25.344z" fill="#A32422" /><path d="M844.8 532.75306666c-38.5024 20.1216-238.2336 102.2464-281.2928 124.416-43.008 22.1184-66.048 22.016-99.7376 5.888-33.6384-16.0768-245.504-101.888-283.8528-120.2688-38.4-18.3296-39.1168-30.8224-1.536-45.568 37.632-14.6944 249.0368-97.6384 293.6832-113.4592 44.6976-15.872 60.1088-16.8448 98.048-3.072 37.9904 13.7728 236.9024 93.4912 274.2272 106.8544 37.376 13.312 39.1168 25.088 0.512 45.056v0.1536z" fill="#DC382C" /><path d="M844.8 482.26986666c-38.4512 20.1216-238.2336 102.2976-281.2416 124.416-43.008 22.1184-65.8944 21.9648-99.5328 5.9392-33.6896-16.0768-245.76-101.9904-284.16-120.32-19.3024-9.0624-29.184-16.7936-29.184-24.064V395.12746666s276.736-60.0576 321.4336-76.1856c44.6464-16.128 60.1088-16.64 98.048-2.7136 37.9392 13.9264 265.3184 54.9888 302.8992 68.7104v72.0384c0.1024 7.5776-8.5504 15.0016-28.2624 25.2928z" fill="#A32422" /><path d="M844.8 409.30986666c-38.4512 19.7632-238.2336 102.4-281.2416 124.416-43.008 21.9136-66.048 21.8624-99.7376 5.888-33.6896-16.0256-245.504-102.0416-283.904-120.32-38.4-18.2272-39.1168-30.8736-1.4848-45.568 37.632-14.7456 248.9856-97.6384 293.6832-113.7152 44.6464-16.128 60.1088-16.5888 98.048-2.6624 37.9392 13.8752 236.8512 92.9792 274.2272 106.7008 37.376 13.7216 39.0656 25.1392 0.4096 45.1072v0.1536z" fill="#DC382C" /><path d="M523.264 305.62986666l47.616-15.6672-12.9024 30.8736 48.4864 18.176-62.464 6.5024-14.08 33.792-22.6304-37.6832-72.2944-6.5024 54.016-19.456-16.2816-29.9008 50.4832 19.8656zM526.2336 502.59626666l-116.8384-48.5376 167.424-25.7024-50.5856 74.24zM364.288 357.75146666c49.3056 0 89.4464 15.5648 89.4464 34.56 0 18.9952-40.2432 34.56-89.4464 34.56-49.2544 0-89.5488-15.5648-89.5488-34.56 0-18.9952 40.1408-34.56 89.5488-34.56z" fill="#FFFFFF" /><path d="M680.6016 348.17706666l99.0208 39.1168-98.9184 39.168-0.1024-78.336z" fill="#741113" /><path d="M680.6016 348.17706666l0.1024 78.2848-10.752 4.1472-99.0208-39.1168 109.6704-43.3152z" fill="#AC2724" /></svg>