<?xml version="1.0" standalone="no"?><!DOCTYPE svg PUBLIC "-//W3C//DTD SVG 1.1//EN" "http://www.w3.org/Graphics/SVG/1.1/DTD/svg11.dtd"><svg t="1741404092868" class="icon" viewBox="0 0 1075 1024" version="1.1" xmlns="http://www.w3.org/2000/svg" p-id="5794" xmlns:xlink="http://www.w3.org/1999/xlink" width="209.9609375" height="200"><path d="M518.9632 719.4112l262.0416 63.4368V290.816l-262.0416 63.488v365.056z" fill="#205B98" p-id="5795"></path><path d="M780.9536 290.8672l50.3296 25.1904v441.7536l-50.3296 25.1392v-492.032zM518.912 719.4112L256.9216 782.848V290.816l261.9904 63.488v365.056z" fill="#5294CF" p-id="5796"></path><path d="M256.9216 290.8672l-50.3296 25.1904v441.7536l50.3296 25.1392v-492.032z" fill="#205B98" p-id="5797"></path><path d="M585.984 881.7664l99.5328-49.7152V243.1488l-99.5328-49.7152-31.232 327.3216 31.232 361.0112z" fill="#5294CF" p-id="5798"></path><path d="M451.84 881.7664l-99.4816-49.7152V243.1488l99.4816-49.7152 31.2832 326.1952-31.232 362.1376z" fill="#205B98" p-id="5799"></path><path d="M585.984 193.4336h-134.144v688.3328h134.144V193.4336z" fill="#2D72B8" p-id="5800"></path></svg>