<?xml version="1.0" standalone="no"?><!DOCTYPE svg PUBLIC "-//W3C//DTD SVG 1.1//EN" "http://www.w3.org/Graphics/SVG/1.1/DTD/svg11.dtd"><svg class="icon" width="200px" height="200.00px" viewBox="0 0 1024 1024" version="1.1" xmlns="http://www.w3.org/2000/svg"><path d="M395.4176 524.8a43.264 43.264 0 0 0-19.968-50.688L226.6112 388.608a43.8784 43.8784 0 0 0-59.8528 16.0256 43.3152 43.3152 0 0 0 16.0256 59.5456L265.984 512l-83.1488 47.7184a43.52 43.52 0 0 0-16.0256 59.648 43.8784 43.8784 0 0 0 59.8528 15.872l148.736-85.504a43.3664 43.3664 0 0 0 19.968-24.9344z m40.3456 80.128a43.264 43.264 0 0 0-25.4464 5.6832l-148.8384 85.4528a43.6224 43.6224 0 1 0 43.776 75.5712l83.456-47.872v95.6928c0 24.064 19.5584 43.6224 43.8272 43.6224a43.7248 43.7248 0 0 0 43.776-43.6224v-171.0592a43.6224 43.6224 0 0 0-40.5504-43.4688z m152.4736-185.856a43.776 43.776 0 0 0 25.344-5.7344l148.8384-85.504a43.5712 43.5712 0 0 0 16.0256-59.648 43.8784 43.8784 0 0 0-59.7504-15.9232l-83.3536 47.9232v-95.744a43.7248 43.7248 0 0 0-43.8784-43.52 43.6736 43.6736 0 0 0-43.776 43.52v171.1104c0 22.9376 17.8176 41.8304 40.5504 43.52zM261.4784 327.7824l148.8384 85.504c8.0384 4.608 16.896 6.4 25.4464 5.6832a43.776 43.776 0 0 0 40.5504-43.52v-171.008a43.7248 43.7248 0 0 0-43.776-43.5712 43.7248 43.7248 0 0 0-43.8784 43.52v95.744l-83.4048-47.9232a43.8784 43.8784 0 0 0-59.8016 15.9232 43.5712 43.5712 0 0 0 16.0256 59.648z m279.7568 183.808a13.0048 13.0048 0 0 0-3.2768-7.7824l-17.92-17.7664a12.6976 12.6976 0 0 0-7.7312-3.1744h-0.7168a12.544 12.544 0 0 0-7.68 3.1744l-17.92 17.7664a12.6976 12.6976 0 0 0-3.1744 7.7824v0.7168c0 2.4576 1.3824 5.888 3.1744 7.68l17.92 17.7664a12.544 12.544 0 0 0 7.68 3.2256h0.7168a12.6464 12.6464 0 0 0 7.7312-3.2256l17.92-17.7664a12.6464 12.6464 0 0 0 3.2768-7.68v-0.7168z m49.4592 17.1008l-61.9008 61.4912a12.3392 12.3392 0 0 1-7.7312 3.2768H502.784a12.5952 12.5952 0 0 1-7.7312-3.2768l-61.8496-61.4912a12.3904 12.3904 0 0 1-3.2256-7.68v-18.1248c0-2.56 1.4336-6.0416 3.2256-7.7824L495.104 433.664a12.4928 12.4928 0 0 1 7.7312-3.2256h18.2272c2.56 0 5.9904 1.3824 7.7824 3.2256l61.8496 61.4912a12.5952 12.5952 0 0 1 3.1744 7.7824v18.1248a12.4416 12.4416 0 0 1-3.1744 7.68z m171.7248 167.3216l-148.8384-85.4528a43.1616 43.1616 0 0 0-25.344-5.632 43.6224 43.6224 0 0 0-40.5504 43.4176v171.008c0 24.1152 19.5584 43.6736 43.776 43.6736a43.7248 43.7248 0 0 0 43.8784-43.6224v-95.744l83.3536 47.9232a43.6736 43.6736 0 1 0 43.776-75.5712z m78.6944-231.936L758.016 512l83.0976 47.7184a43.52 43.52 0 0 1 16.0256 59.648 43.9296 43.9296 0 0 1-59.8016 15.872l-148.8896-85.504a43.264 43.264 0 0 1-21.8112-39.1168 43.776 43.776 0 0 1 21.8624-36.4544l148.8384-85.504a43.9296 43.9296 0 0 1 59.8016 15.9744 43.3664 43.3664 0 0 1-16.0256 59.5456z" fill="#29B5E8" /></svg>