<?xml version="1.0" standalone="no"?><!DOCTYPE svg PUBLIC "-//W3C//DTD SVG 1.1//EN" "http://www.w3.org/Graphics/SVG/1.1/DTD/svg11.dtd"><svg class="icon" width="200px" height="200.00px" viewBox="0 0 1024 1024" version="1.1" xmlns="http://www.w3.org/2000/svg"><path d="M691.6096 187.5968H211.9168A58.5216 58.5216 0 0 0 153.6 245.9648v528.7936c0 32.3072 26.5216 58.368 58.368 58.368h315.7504c-3.3792-156.672 50.6368-461.824 163.8912-645.5296z" fill="#0F80CC" /><path d="M803.4816 170.1888c-32.768-29.3888-72.8064-17.3056-111.872 17.408-5.7856 5.2736-11.52 11.0592-17.3056 16.896-67.072 71.3216-129.7408 203.4176-148.992 304.128 7.68 15.4624 13.4656 34.7136 17.3056 49.664 1.024 3.8912 1.9456 7.2704 2.4576 10.5984 1.8944 7.2704 2.4064 12.0832 2.4064 12.0832s-0.512-2.4064-2.8672-9.6256c-0.512-1.4848-1.024-2.8672-1.4848-4.8128-0.512-0.9728-0.512-1.4848-0.9728-2.4576-4.3008-10.0864-16.384-31.744-21.6576-40.96-4.352 13.4656-8.704 26.0096-12.0832 37.5808 15.4624 27.9552 24.576 76.6976 24.576 76.6976l-4.8128-14.0288c-3.3792-9.6256-20.736-39.5264-24.576-46.7456-6.7584 25.6-9.6256 42.9056-7.168 47.2576 4.7616 8.192 9.5744 22.1696 13.4144 37.5808 9.216 35.2256 15.4624 77.6704 15.4624 77.6704s0 2.8672 0.512 7.168a662.016 662.016 0 0 0 1.8944 87.7568c2.8672 36.6592 8.6528 67.9936 15.872 84.8384l4.864-2.8672c-10.5984-33.28-14.9504-76.1856-13.0048-126.3104 2.8672-76.1856 20.224-168.704 52.992-264.704 54.9888-145.1008 131.1744-261.2736 200.5504-316.672-63.5904 57.344-149.4016 242.944-175.0016 311.9104-28.928 77.1072-49.152 149.4016-61.696 218.368 21.1968-65.0752 89.7024-92.5696 89.7024-92.5696s33.6896-41.472 72.7552-100.7616c-23.6032 5.3248-62.208 14.4384-75.1616 20.2752-19.3024 8.192-24.1664 10.5472-24.1664 10.5472s61.7472-37.5808 115.2512-54.9376c73.728-115.712 153.344-279.1424 72.8064-350.976z" fill="#003B57" /></svg>