<?xml version="1.0" standalone="no"?><!DOCTYPE svg PUBLIC "-//W3C//DTD SVG 1.1//EN" "http://www.w3.org/Graphics/SVG/1.1/DTD/svg11.dtd"><svg t="1741403950252" class="icon" viewBox="0 0 1075 1024" version="1.1" xmlns="http://www.w3.org/2000/svg" p-id="4404" xmlns:xlink="http://www.w3.org/1999/xlink" width="209.9609375" height="200"><path d="M224 303.6672c-0.9216 19.456 7.936 30.0032 20.2752 39.7312l238.3872 195.9936c22.016 18.5344 23.808 30.8736 8.8064 54.7328l-116.5312 177.408c-15.0016 22.0672-28.2624 25.6-52.0704 12.3904l-74.1888-42.3936c-28.2112-15.872-42.3424-40.6016-42.3424-73.2672v-313.344c0-17.7152 4.4032-33.5872 17.664-51.2512zM895.7952 722.1248c5.3248-20.3264-4.4032-30.9248-16.7424-40.6528-79.4624-65.3312-158.0544-129.7408-236.5952-195.072-25.6-21.1968-27.392-31.744-9.728-59.136 37.9392-58.2656 76.8-116.5312 114.7392-174.7968 15.0016-22.9888 29.184-25.6 52.992-12.3904 24.7296 14.1312 49.408 28.2624 73.2672 42.3936 28.2624 15.872 41.472 39.7312 41.472 72.3968v314.2656c0.9216 18.5344-4.4032 36.1984-19.4048 52.9408zM712.192 572.0064c5.2736 3.584 152.6784 124.4672 154.4704 126.2592 21.1968 19.456 19.456 36.1984-5.3248 51.2-63.488 36.1984-235.6736 134.144-257.7408 147.456-28.2624 16.7424-56.5248 16.7424-84.736 0-40.6528-23.8592-81.2544-46.7968-121.856-70.656-19.456-11.4688-19.456-23.8592 0-34.4064 96.256-54.784 191.5904-110.3872 287.7952-165.12 22.0672-12.3392 37.0688-25.6 27.392-54.7328z" fill="#01808F" p-id="4405"></path><path d="M410.2656 451.9936a15285.7088 15285.7088 0 0 1-154.5216-126.2592c-21.1456-19.456-19.4048-36.1984 5.3248-51.2 63.5392-36.1984 235.7248-134.144 257.792-147.456 28.2112-16.7424 56.4736-16.7424 84.736 0 40.6016 23.8592 81.2032 46.7968 121.856 70.656 19.4048 11.4688 19.4048 23.808 0 34.4064-96.256 54.784-191.5904 110.3872-287.8464 165.12-22.016 12.3392-37.0688 25.6-27.3408 54.7328z" fill="#FEBD02" p-id="4406"></path></svg>