<?xml version="1.0" standalone="no"?><!DOCTYPE svg PUBLIC "-//W3C//DTD SVG 1.1//EN" "http://www.w3.org/Graphics/SVG/1.1/DTD/svg11.dtd"><svg class="icon" width="200px" height="200.00px" viewBox="0 0 1024 1024" version="1.1" xmlns="http://www.w3.org/2000/svg"><path d="M348.8256 419.84l4.864 1.6384a78.6944 78.6944 0 0 1-0.6144-2.048l-1.8944-4.864c-1.28-3.4304-2.56-6.8096-3.584-10.24a32.1024 32.1024 0 0 1-1.1776-11.7248 98.304 98.304 0 0 1 3.7888-16.5888 19.968 19.968 0 0 1 4.352-8.5504c5.3248-5.0688 10.9568-9.8304 16.896-14.1824 7.8848-5.9392 16.0768-11.5712 24.2688-17.152 11.52-7.7312 23.6544-14.4896 36.2496-20.224a409.6 409.6 0 0 1 24.9344-10.2912 192.768 192.768 0 0 1 68.5056-12.6464 143.2064 143.2064 0 0 1 64.1024 12.9024c11.0592 5.12 20.992 11.8784 30.208 19.7632 8.704 7.4752 15.616 16.64 21.9136 26.3168 7.168 10.9568 12.032 22.9376 16.0256 35.328 1.28 4.0448 2.048 8.192 2.8672 12.4416l0.9728 4.7616 1.9456 9.8304 0.8704 4.4544c0.3584 1.9456 1.3824 2.7648 3.5328 2.7648h50.6368c1.8944 0 2.7648-0.9216 3.072-2.4064a16.1792 16.1792 0 0 0 0.3072-6.5024c-0.512-5.2224-0.9216-10.496-1.792-15.6672a316.16 316.16 0 0 0-4.096-20.8384 159.5904 159.5904 0 0 0-18.432-46.4896 138.3936 138.3936 0 0 0-57.7536-53.8112 130.2016 130.2016 0 0 0-36.4544-12.4416 95.3344 95.3344 0 0 0-18.5344-2.9696l-4.608-0.1024c-12.3392-0.3584-24.7808-0.7168-37.2224 1.024a247.0912 247.0912 0 0 0-40.0384 8.704c-28.16 8.704-54.3744 21.5552-79.0016 37.6832a357.0176 357.0176 0 0 0-41.472 30.976c-6.3488 5.632-12.544 11.4176-18.7392 17.2544L358.4 360.96a47.104 47.104 0 0 0-2.8672 3.072c-1.7408 1.8944-3.4816 3.84-5.632 5.0688a47.104 47.104 0 0 1-26.0096 6.5536 59.4944 59.4944 0 0 1-18.944-4.864c-0.6144-0.256-1.3312-0.2048-2.048-0.1536l-1.024 0.0512c0.1024 1.024 0.2048 2.048 0.4608 3.072 0.512 1.792 1.1264 3.584 1.7408 5.376 1.28 3.6352 2.5088 7.2704 3.2256 10.9568a40.6528 40.6528 0 0 1-2.2528 20.736l-3.584 10.3936 3.2256-1.0752 4.0448-1.4336c5.7344-2.0992 11.7248-3.584 17.8176-4.3008 0.768-0.1024 1.5872 0 2.4064 0.2048a220.0064 220.0064 0 0 1 8.2944 1.4848c3.84 1.1776 7.68 2.4576 11.6224 3.7888z m30.5664 380.1088l8.4992 0.7168 9.4208-0.8192a231.7824 231.7824 0 0 0 58.7776-10.5472c16.5888-4.9152 32.512-11.5712 48.128-19.2a360.448 360.448 0 0 0 58.7264-36.0448 470.784 470.784 0 0 0 60.2624-54.1696 224.256 224.256 0 0 0 15.36-17.92c7.68-9.8816 15.1552-19.8656 22.6816-29.9008l0.6656-0.9216c1.8944-2.56 1.5872-4.2496-1.024-5.888a7.168 7.168 0 0 0-3.584-0.8704H640c-10.752 0-21.6064 0-32.4096-0.2048-5.2736-0.1024-8.8064 1.1776-12.288 5.632-5.376 6.9632-11.264 13.4656-17.2032 19.968l-6.3488 7.0656c-10.752 12.1344-23.04 22.7328-35.6864 32.768-16.896 13.5168-35.072 25.2416-54.272 35.0208a247.0912 247.0912 0 0 1-67.0208 23.808l-0.768 0.1536a230.2976 230.2976 0 0 1-26.8288 3.8912 160.256 160.256 0 0 1-36.352-1.3824 140.1344 140.1344 0 0 1-47.616-16.0768 127.6928 127.6928 0 0 1-33.3824-27.7504 131.9936 131.9936 0 0 1-23.9616-42.752c-1.7408-4.864-2.8672-9.9328-3.9936-15.0016l-0.256-1.024c-0.7168-3.2768-1.28-6.6048-1.8944-9.8816a340.0192 340.0192 0 0 0-1.2288-6.7072 19.456 19.456 0 0 0-1.536-5.12c-1.28-2.56-2.816-2.4576-5.12-0.7168-1.792 1.3312-1.6384 2.9184-1.4336 4.608l0.0512 0.9216c0.2048 2.8672 0.3072 5.7856 0.4608 8.6528 0.3072 6.7584 0.6144 13.568 1.3824 20.2752 1.8944 15.6672 5.1712 31.0784 11.264 45.7216 2.9184 7.0144 5.8368 14.08 9.472 20.736 5.0176 9.1648 11.3152 17.408 18.2272 25.3952a128 128 0 0 0 27.904 24.0128c18.432 11.776 38.5536 19.1488 60.3136 21.7088 6.656 0.768 13.3632 1.28 19.9168 1.8432z" fill="#A9303C" /><path d="M852.9408 613.376h-49.2544c-4.096 0-5.9392-2.1504-4.8128-6.0416 1.536-5.2224 3.2768-10.3936 4.864-15.616l3.7376-12.4928 5.9392-18.7392c1.792-5.888 3.4304-11.776 5.2736-17.6128 2.2528-7.4752 4.608-14.8992 6.9632-22.3744l5.0688-16.5888 7.4752-23.9104c1.6896-5.5296 3.1744-11.1104 4.864-16.6912l7.68-24.1152c0.7168-2.304 2.0992-3.072 4.352-3.072h107.52c6.9632 0 13.7216 1.0752 19.968 4.0448 8.192 3.84 13.9264 9.9328 15.872 19.1488 0.4608 2.048 1.8432 4.096 1.7408 6.144-0.512 7.68-2.56 15.2576-5.7856 22.2208a63.0784 63.0784 0 0 1-17.1008 20.8896c-1.9456 1.6896-4.4544 2.816-6.7072 4.1984l-0.768 0.256c-2.2528 1.28-4.7616 2.8672-4.7104 5.632 0 2.7136 2.2016 4.3008 4.608 5.8368a25.7024 25.7024 0 0 1 12.032 14.6944 29.696 29.696 0 0 1 0.9728 14.4384c-1.3824 6.6048-3.3792 13.312-6.3488 19.3024-8.192 16.6912-21.248 28.416-38.8096 34.6112-5.7344 2.048-11.9808 2.7648-18.0224 3.6864-23.0912 3.5328-46.3872 1.536-66.6112 2.1504z m40.2432-74.1376v-0.4096c-4.352 0-8.704 0.256-13.1072-0.0512-3.5328-0.256-5.376 1.536-6.5024 4.8128-2.56 7.7312-4.864 15.4624-7.3216 23.1936-1.9456 6.3488 0 9.0624 6.656 9.1136 5.6832 0 11.4688 0.1024 17.152-0.0512 6.912-0.2048 13.824 0 20.6336-1.8432 7.7824-2.048 18.4832-12.2368 17.5616-23.7568a9.9328 9.9328 0 0 0-4.4032-7.68 22.016 22.016 0 0 0-12.4416-3.328c-6.0416-0.2048-12.1344 0-18.2272 0z m20.0192-68.9152v0.512H901.12c-4.096 0-6.144 1.536-7.2704 5.4272-1.3824 4.7616-2.8672 9.472-4.1984 14.2848-0.9216 3.4304-2.048 6.8608-2.3552 10.3936-0.3072 3.5328 1.536 4.9152 5.0176 4.9152 5.5808-0.0512 11.1616 0.1536 16.6912-0.1024 5.12-0.1536 10.24-0.5632 15.2576-1.2288 10.1376-1.4336 16.2304-9.4208 17.92-18.6368 1.4848-8.0896-1.7408-12.9024-9.8304-13.9776-6.3488-0.8704-12.8-1.0752-19.1488-1.536zM545.9968 613.376c-8.704 0-17.3056-0.1024-26.0096 0-2.2016 0-3.4816-0.9216-4.2496-2.9184a22526.5664 22526.5664 0 0 0-29.9008-79.6672c-0.6144-1.5872-1.536-3.4304-2.8672-4.3008-3.0208-1.9968-6.656-0.0512-7.7824 3.5328l-10.3424 33.9456c-2.304 7.68-4.5056 15.36-6.8608 23.04-2.4576 7.9872-5.0688 15.9744-7.7824 23.8592a3.84 3.84 0 0 1-2.6112 2.1504 68.608 68.608 0 0 1-8.448 0.3072l-36.0448-0.1024c-1.0752 0-2.2016-0.2048-3.328-0.256-2.304-0.1536-3.2768-1.3824-2.816-3.584a132.608 132.608 0 0 1 2.4064-9.8816c2.304-7.8848 4.6592-15.7184 7.0656-23.552 2.816-9.0624 5.6832-18.0736 8.448-27.136l6.656-21.76 5.9904-19.2c2.304-7.4752 4.4544-15.0016 6.7584-22.4768 1.792-5.888 3.8912-11.7248 5.7344-17.6128 1.6384-5.3248 3.072-10.752 4.6592-16.0768l3.8912-12.8512c0.6144-1.9456 2.048-2.8672 4.096-2.8672h48.64c1.536 0 2.6624 0.4096 3.328 2.0992 2.3552 6.3488 4.864 12.5952 7.2704 18.944l13.3632 35.2256 9.8304 26.4192a12.8 12.8 0 0 0 1.6384 3.2256c2.7648 3.6352 6.656 3.328 8.6528-0.8704 1.024-2.304 1.9456-4.7104 2.6624-7.168 2.2528-7.5776 4.4032-15.2064 6.7072-22.7328a5701.7856 5701.7856 0 0 1 15.7184-50.7904c1.1776-3.7888 1.6384-4.2496 5.632-4.2496 16.0768-0.0512 32.256-0.1024 48.3328-0.0512 2.3552 0 3.9936 1.536 3.6352 3.8912a54.8352 54.8352 0 0 1-1.8944 7.936l-10.8032 35.7888c-3.84 12.3904-7.7824 24.7808-11.5712 37.1712-2.4064 7.8336-4.608 15.7184-6.9632 23.552-3.2256 10.496-6.5536 20.8896-9.728 31.3344-2.816 9.0624-5.4784 18.1248-8.2432 27.1872l-2.304 7.68c-0.6656 2.3552-2.5088 2.6624-4.608 2.6624h-25.9584v0.1024zM269.568 435.968h23.1936c3.84 0 5.5808 2.4064 4.4032 6.144l-14.336 46.592c-4.4032 14.3872-8.704 28.7744-13.056 43.2128-1.8944 6.2976-3.7888 12.5952-5.4272 18.944-2.56 9.8816 3.0208 22.1184 14.6944 23.8592 11.3152 1.6896 22.1184 0.7168 31.6928-6.144a39.6288 39.6288 0 0 0 15.2576-19.8144c3.4304-10.24 6.4-20.6848 9.6256-30.976l8.704-27.0336c1.6384-5.3248 3.072-10.752 4.7104-16.1792l7.168-23.1424c1.2288-3.8912 2.4576-7.7824 3.584-11.7248 0.768-2.7648 1.8432-3.6864 4.6592-3.6864h48.384c3.072 0 4.9664 2.304 4.096 5.2224-3.3792 11.264-6.8608 22.3744-10.24 33.5872-3.584 11.6224-6.912 23.296-10.5472 34.8672-4.5056 14.5408-8.704 29.184-14.0288 43.4176-3.3792 9.216-8.448 17.8176-14.9504 25.2416-3.1744 3.584-6.0416 7.4752-9.5232 10.7008a92.16 92.16 0 0 1-38.0416 22.528c-16.7424 4.608-33.792 5.8368-51.0976 4.5056-7.3216-0.512-14.6432-1.024-22.016-1.7408a59.2896 59.2896 0 0 1-8.2432-1.6384 44.4416 44.4416 0 0 1-18.3808-8.0384 43.8272 43.8272 0 0 1-9.0112-10.9568 36.0448 36.0448 0 0 1-5.6832-18.1248c-0.2048-5.2224 0.1536-10.4448 0.4096-15.616 0.512-10.752 3.9424-20.8896 7.3728-31.0272 1.9456-5.7856 3.4304-11.776 5.2224-17.6128 1.8432-5.888 3.8912-11.776 5.7344-17.7152 1.6896-5.5296 3.2256-11.1104 4.9152-16.64 1.8944-6.144 3.9424-12.288 5.8368-18.4832 1.6384-5.376 3.328-10.752 4.7104-16.1792 1.3312-5.1712 2.56-6.2464 7.8848-6.144h22.3744v-0.2048zM137.216 432.4864c9.3696 0.8192 18.432 1.28 27.392 2.56 7.1168 1.024 14.0288 3.1744 20.2752 6.9632 7.68 4.7104 11.9296 11.7248 13.7728 20.4288 1.3312 6.144 1.792 12.1344 0.3584 18.2784-0.6144 2.56-1.3824 4.1984-4.352 4.352-5.2224 0.2048-10.3936 0.8192-15.616 1.1264a1920 1920 0 0 1-29.7472 1.536c-4.8128 0.256-5.4784-0.4608-6.144-5.12l-0.512-4.352c-0.7168-6.2464-4.2496-10.0352-10.1376-11.776a31.5904 31.5904 0 0 0-26.4704 2.9184c-4.608 2.7648-7.8848 6.7072-7.936 12.6464-0.0512 3.328 1.28 5.888 4.096 7.168 3.9424 1.6896 8.0384 3.072 12.288 4.2496 4.352 1.28 8.96 2.048 13.312 3.3792 8.192 2.4064 16.384 4.7616 24.4224 7.6288 10.2912 3.584 19.3024 9.3184 25.2928 18.688 2.6624 3.9424 4.096 8.5504 4.096 13.312v0.2048c1.024 11.6224-2.4064 22.1184-7.68 32.2048-4.8128 9.216-11.3664 17.3568-19.3024 24.064-10.24 8.704-22.272 15.1552-35.2256 18.7904a132.8128 132.8128 0 0 1-47.5136 4.352c-6.8096-0.512-13.7728-0.512-20.48-1.792-11.52-2.1504-22.9376-5.12-30.72-15.1552a30.0544 30.0544 0 0 1-6.2976-14.6432c-0.768-6.3488-0.8704-12.8-1.024-19.2 0-2.56 0.3584-5.12 1.0752-7.5776 0.3072-1.024 1.792-2.304 2.816-2.3552 11.1104-0.8704 22.2208-1.4848 33.28-2.1504 4.8128-0.3072 9.6256-0.768 14.3872-1.024 3.2768-0.2048 5.376 1.7408 5.4784 4.9664 0.1024 2.7136 0 5.4784 0.1024 8.192 0.2048 5.0688 4.864 13.0048 11.3664 14.8992 10.3424 3.072 20.5824 2.8672 30.1056-2.6112 6.656-3.84 11.6736-9.3696 12.7488-17.3568 0.5632-4.1984-1.4336-7.7824-4.608-10.6496a31.488 31.488 0 0 0-13.056-6.144c-8.2944-2.4576-16.64-4.5056-24.8832-7.0144a77.0048 77.0048 0 0 1-22.7328-10.5984c-5.9392-4.3008-11.52-9.216-13.568-16.5376a43.4176 43.4176 0 0 1-1.4336-13.6192c0.5632-10.8544 4.8128-20.4288 11.264-29.0304 6.0416-8.192 13.4144-15.0016 22.3232-20.1216 9.4208-5.376 19.3536-9.6256 30.1056-11.1616 9.728-1.3824 19.5584-2.048 29.1328-2.9184zM651.0592 613.0176h-40.3968c-5.12-0.1024-6.4-1.9456-4.9152-7.168 2.2016-7.4752 4.608-14.9504 6.9632-22.4256l6.2976-20.7872 7.168-23.552 9.9328-32.256 8.8576-28.928 8.2944-27.4432c1.1264-3.6352 2.3552-7.2704 3.4304-10.9568 0.7168-2.3552 2.1504-3.4304 4.6592-3.3792 5.632 0.1024 11.1616 0 16.7424 0 24.8832 0 49.7664-0.0512 74.6496 0.1536 10.0864 0.1024 19.8144 1.9968 28.8768 6.8608a40.3968 40.3968 0 0 1 19.6096 23.9616c3.8912 11.776 3.328 23.7568 1.536 35.84-2.3552 16.2816-7.68 31.5904-14.1824 46.592a107.4176 107.4176 0 0 1-29.0816 39.2704 91.648 91.648 0 0 1-31.0272 18.1248c-13.6704 4.5056-27.648 6.4512-41.8816 6.4h-35.5328v-0.3072z m61.184-137.5232h-9.1136c-2.1504 0-3.328 1.1776-3.9424 3.072l-1.8944 6.0416c-1.6384 5.632-3.1744 11.1616-4.864 16.7424-2.304 7.5776-4.8128 15.0528-7.168 22.6304-2.9696 9.6256-5.8368 19.2512-8.704 28.8768-1.536 5.0176-3.0208 9.984-4.4544 15.0016-0.6144 2.2528 1.4336 5.3248 3.7376 5.4784 10.5472 0.768 21.0432 0.512 31.3856-1.536 10.1888-1.9456 17.3568-8.6016 22.8864-16.9472 4.608-7.0144 7.8848-14.7456 10.496-22.7328 3.8912-11.8784 7.424-23.7568 7.1168-36.5056-0.2048-9.3184-4.3008-14.2848-12.5952-17.152a54.272 54.272 0 0 0-22.8864-2.9696z" fill="#4550FF" /></svg>