<?xml version="1.0" standalone="no"?><!DOCTYPE svg PUBLIC "-//W3C//DTD SVG 1.1//EN" "http://www.w3.org/Graphics/SVG/1.1/DTD/svg11.dtd"><svg t="1741404790535" class="icon" viewBox="0 0 1024 1024" version="1.1" xmlns="http://www.w3.org/2000/svg" p-id="6954" xmlns:xlink="http://www.w3.org/1999/xlink" width="200" height="200"><path d="M512 91.8528c30.4128 0 54.9376 24.2176 54.9376 54.2208S542.3616 200.2944 512 200.2944a54.4768 54.4768 0 0 1-54.9376-54.2208A55.0912 55.0912 0 0 1 512 91.8528z m-362.8544 258.56c30.4128 0 54.9376 24.1664 54.9376 54.1696 0 30.0032-24.5248 54.272-54.9376 54.272a54.4768 54.4768 0 0 1-54.8864-54.272 55.808 55.808 0 0 1 54.8864-54.2208z m142.2336 422.0928c30.3616 0 54.8864 24.2176 54.8864 54.2208s-24.5248 54.2208-54.8864 54.2208a54.4768 54.4768 0 0 1-54.9376-54.2208c0-30.0032 24.5248-54.2208 54.9376-54.2208z m441.2928 0c30.3616 0 54.8864 24.2176 54.8864 54.2208s-24.5248 54.2208-54.8864 54.2208a54.4768 54.4768 0 0 1-54.9376-54.2208c0-30.0032 24.5248-54.2208 54.8864-54.2208z m-140.288-360.192H431.616l-49.0496 150.0672L512 655.36l129.4336-92.0064-48.9984-151.04z m-155.904-12.544l55.9104-170.4448c-3.9424-0.9728-8.8064-1.8944-12.7488-3.84l-56.832 174.2848h-186.368v12.544h181.4016l-47.0528 142.336-147.0976-105.5232c-1.9456 3.8912-4.9152 6.7584-7.8336 10.6496l125.4912 90.0608 25.4976 18.3808-8.8064 24.2176-49.0496 150.016c3.9424 1.024 8.8576 1.9968 12.8 3.9424l55.8592-169.472L500.224 665.088l-144.128 103.5776c2.9184 2.9184 5.888 6.8096 7.8336 9.728L512 671.7952l148.0704 106.496a38.0416 38.0416 0 0 1 7.8336-9.728l-145.1008-104.5504 122.5728-88.064 5.888 16.384 50.9952 154.0096a48.7936 48.7936 0 0 1 12.7488-3.8912l-56.8832-174.2848 25.4976-18.432 124.5184-90.0096c-2.9184-2.9184-4.864-6.7584-7.8336-10.6496l-121.6 87.1424-3.8912 2.9184-22.5792 15.4624-47.104-142.336h181.4528v-8.704-4.8128h-186.368l-56.832-174.2848a49.0496 49.0496 0 0 1-12.7488 3.84l55.9104 170.4448-150.016 0.9728z m-217.7024-48.4352l220.672-158.7712c1.9456 3.84 4.864 6.7584 7.8336 9.6768L225.6384 361.984c-1.9456-3.8912-4.864-6.7584-6.8608-10.6496z m39.2192 395.0592L172.6976 486.8608c3.9424-0.9216 7.8336-2.8672 11.776-3.84l86.272 259.4816c-4.864 0.9728-8.8064 2.8672-12.7488 3.84z m388.352 83.2512H378.624v-3.8912-9.6768h267.776v9.728c-1.024 1.8944-1.024 2.8672 0 3.84z m205.9264-341.8112l-85.2992 259.4816a55.5008 55.5008 0 0 0-11.776-3.84l85.2992-259.4816c2.9696 0.9728 6.8608 2.8672 11.776 3.84z m-266.752-295.2704l220.672 158.7712c-2.9184 2.9184-4.9152 6.7584-6.8608 10.6496l-222.6176-158.7712c2.9696-3.8912 5.888-6.8096 8.8576-10.6496z m289.28 157.7984c30.464 0 54.9376 24.2176 54.9376 54.272 0 29.952-24.5248 54.1696-54.8864 54.1696a54.4768 54.4768 0 0 1-54.9376-54.2208c0-30.0032 24.5248-54.2208 54.9376-54.2208z" fill="#3578EB" p-id="6955"></path></svg>