<?xml version="1.0" standalone="no"?><!DOCTYPE svg PUBLIC "-//W3C//DTD SVG 1.1//EN" "http://www.w3.org/Graphics/SVG/1.1/DTD/svg11.dtd"><svg class="icon" width="200px" height="200.00px" viewBox="0 0 1024 1024" version="1.1" xmlns="http://www.w3.org/2000/svg"><path d="M855.6544 512.1536c0 56.4224-0.1536 112.896 0.256 169.2672 0 9.0624-2.7136 13.7728-10.8544 17.92a74510.08 74510.08 0 0 0-321.024 169.984c-7.68 3.9936-13.824 4.8128-22.2208 0.3584a62695.2192 62695.2192 0 0 0-323.84-170.7008c-7.5264-3.9424-9.8816-8.6016-9.8816-17.0496 0.256-113.2544 0.256-226.56 0-339.8656 0-8.448 2.7136-13.1072 10.0352-16.9984a92517.888 92517.888 0 0 0 323.7888-170.5984c7.5264-3.9936 13.2096-4.352 20.992-0.256 108.032 57.7024 216.2176 115.0976 324.5568 172.1856 7.7824 4.096 8.2944 9.2672 8.2944 16.5376a25193.1136 25193.1136 0 0 0-0.1024 169.216zM489.472 727.552v-18.432c0-101.888 0.1536-203.776-0.3584-305.664 0-11.6224 2.7136-17.9712 13.3632-23.1936 28.7744-14.1824 56.832-29.696 85.248-44.6976 3.1744-1.9456 6.2464-4.096 9.216-6.3488-27.648-14.6432-53.4016-28.672-79.616-41.8304-3.4816-1.7408-9.728-0.6656-13.568 1.3312A21905.3568 21905.3568 0 0 0 336.9472 376.32c-13.5168 7.168-32 11.8784-38.5024 23.3984-6.912 12.1856-2.3552 31.1296-2.7136 47.104-0.1536 13.5168 0 26.9824 0 42.7008l107.8784-56.7296v16.896c0 73.3696 0 146.7904 0.1536 220.2624 0 4.9152 1.3312 12.4928 4.4544 14.2848 25.9584 14.5408 52.3776 28.0576 81.2544 43.2128z m85.248-22.528c4.9152-2.1504 8.3968-3.4304 11.6736-5.12 20.7872-11.008 41.3696-22.3232 62.464-32.6656 8.8576-4.352 12.1856-9.5232 12.1344-19.8144-0.4096-81.664-0.2048-163.328-0.2048-245.0944 0-4.352-0.4608-8.704-0.7168-14.9504-25.7536 13.568-49.7664 26.9312-74.3936 38.912-8.96 4.352-11.1104 9.8816-11.0592 19.0976 0.256 64.7168 0 129.4336 0 194.048 0.1024 21.1968 0.1024 42.2912 0.1024 65.536v0.1024z" fill="#E80230" /></svg>